<svg width="33" height="29" viewBox="0 0 33 29" fill="none" xmlns="http://www.w3.org/2000/svg">
<path d="M21.3 16.3986C21.3 19.0986 19.1 21.1986 16.5 21.1986C13.9 21.1986 11.7 19.0986 11.7 16.3986C11.7 13.6986 13.9 11.5986 16.5 11.5986C19.2 11.6986 21.3 13.7986 21.3 16.3986ZM32.5 8.99858V23.8986C32.5 26.1986 30.6 28.1986 28.2 28.1986H4.8C2.4 28.1986 0.5 26.2986 0.5 23.8986V8.89858C0.5 6.59858 2.4 4.59858 4.8 4.59858H8.5L9.3 2.29858C9.7 1.19858 11 0.298584 12.2 0.298584H20.8C22 0.298584 23.3 1.19858 23.7 2.29858L24.5 4.69858H28.2C30.6 4.69858 32.5 6.59858 32.5 8.99858ZM23.9 16.4986C23.9 12.3986 20.6 8.99858 16.4 8.99858C12.3 8.99858 8.9 12.3986 8.9 16.4986C8.9 20.5986 12.2 23.9986 16.4 23.9986C20.6 23.8986 23.9 20.5986 23.9 16.4986Z" fill="white"/>
</svg>
