<svg width="11" height="16" viewBox="0 0 11 16" fill="none" xmlns="http://www.w3.org/2000/svg">
<path d="M5.55123 3.50641C4.44437 3.50641 3.54346 4.42421 3.54346 5.55181C3.54346 6.67941 4.44437 7.59721 5.55123 7.59721C6.65808 7.59721 7.559 6.67941 7.559 5.55181C7.559 4.42421 6.65808 3.50641 5.55123 3.50641ZM5.55123 7.01281C4.76045 7.01281 4.11711 6.3574 4.11711 5.55181C4.11711 4.74621 4.76045 4.09081 5.55123 4.09081C6.342 4.09081 6.98535 4.74621 6.98535 5.55181C6.98535 6.3574 6.342 7.01281 5.55123 7.01281Z" fill="#FF3366"/>
<path d="M9.38989 1.64129C8.35102 0.582939 6.96967 0 5.50056 0C4.03116 0 2.6501 0.582939 1.61122 1.64129C-0.311363 3.59961 -0.550287 7.28426 1.09379 9.51666L5.50056 16L9.90073 9.52572C11.5514 7.28426 11.3125 3.59961 9.38989 1.64129ZM9.4355 9.18414L5.50056 14.9732L1.5593 9.17508C0.0681058 7.14955 0.28179 3.82198 2.01708 2.05446C2.94753 1.10656 4.18461 0.5844 5.50056 0.5844C6.81651 0.5844 8.05358 1.10656 8.98432 2.05446C10.7196 3.82198 10.9333 7.14955 9.4355 9.18414Z" fill="#FF3366"/>
</svg>
