<svg width="23" height="23" viewBox="0 0 23 23" fill="none" xmlns="http://www.w3.org/2000/svg">
<path d="M21.8159 8.94444H19.6641C19.3183 8.94444 19.0334 8.75406 18.9009 8.43461C18.7684 8.11517 18.8357 7.77868 19.0798 7.5342L20.6012 6.01322C20.8248 5.78961 20.9479 5.49189 20.9479 5.17585C20.9479 4.85939 20.8248 4.56209 20.6012 4.33806L18.6619 2.39881C18.2147 1.95159 17.4349 1.95074 16.9868 2.39881L15.4658 3.9198C15.2213 4.16385 14.884 4.232 14.5654 4.09911C14.2459 3.96665 14.0556 3.6817 14.0556 3.33585V1.18407C14.0556 0.53113 13.5244 0 12.8715 0H10.1285C9.47557 0 8.94444 0.53113 8.94444 1.18407V3.33585C8.94444 3.6817 8.75406 3.96665 8.43461 4.09911C8.11602 4.23243 7.77868 4.16385 7.5342 3.9198L6.01322 2.39881C5.56515 1.95074 4.78528 1.95159 4.33806 2.39881L2.39881 4.33806C2.1752 4.56167 2.05211 4.85939 2.05211 5.17585C2.05211 5.49189 2.1752 5.78919 2.39881 6.01322L3.92022 7.5342C4.16428 7.77868 4.23115 8.11517 4.09911 8.43461C3.96707 8.75406 3.6817 8.94444 3.33585 8.94444H1.18407C0.53113 8.94444 0 9.47557 0 10.1285V12.8711C0 13.5244 0.53113 14.0556 1.18407 14.0556H3.33585C3.6817 14.0556 3.96665 14.2459 4.09911 14.5654C4.23157 14.8848 4.16428 15.2213 3.92022 15.4658L2.39881 16.9868C2.1752 17.2104 2.05211 17.5081 2.05211 17.8241C2.05211 18.1406 2.1752 18.4379 2.39881 18.6619L4.33806 20.6012C4.7857 21.0488 5.56515 21.0497 6.01322 20.6012L7.5342 19.0798C7.77868 18.8357 8.11474 18.7684 8.43461 18.9009C8.75406 19.0334 8.94444 19.3183 8.94444 19.6641V21.8159C8.94444 22.4689 9.47557 23 10.1285 23H12.8711C13.524 23 14.0551 22.4689 14.0551 21.8159V19.6641C14.0551 19.3183 14.2455 19.0334 14.565 18.9009C14.8848 18.768 15.2209 18.8357 15.4654 19.0798L16.9864 20.6012C17.4344 21.0493 18.2143 21.0484 18.6615 20.6012L20.6008 18.6619C20.8244 18.4383 20.9475 18.1406 20.9475 17.8241C20.9475 17.5081 20.8244 17.2108 20.6008 16.9868L19.0794 15.4658C18.8353 15.2213 18.7684 14.8848 18.9005 14.5654C19.0325 14.2459 19.3183 14.0556 19.6641 14.0556H21.8159C22.4689 14.0556 23 13.5244 23 12.8715V10.1285C23 9.47557 22.4689 8.94444 21.8159 8.94444ZM22.1481 12.8715C22.1481 13.0546 21.9991 13.2037 21.8159 13.2037H19.6641C18.9724 13.2037 18.3783 13.6007 18.1138 14.2396C17.8489 14.8784 17.9881 15.5795 18.4775 16.0685L19.9989 17.5895C20.1288 17.7194 20.1288 17.9302 19.9989 18.0597L18.0597 19.9989C17.9302 20.1284 17.7194 20.1293 17.5895 19.9989L16.0685 18.4775C15.5791 17.9881 14.8784 17.8497 14.2396 18.1138C13.6007 18.3783 13.2037 18.9724 13.2037 19.6641V21.8159C13.2037 21.9991 13.0546 22.1481 12.8715 22.1481H10.1285C9.94537 22.1481 9.7963 21.9991 9.7963 21.8159V19.6641C9.7963 18.9724 9.39933 18.3783 8.76044 18.1138C8.5462 18.0248 8.32557 17.9813 8.1075 17.9813C7.67561 17.9813 7.25693 18.1517 6.93152 18.4771L5.41054 19.9985C5.2802 20.1288 5.06937 20.128 4.94031 19.9985L3.00107 18.0593C2.87117 17.9294 2.87117 17.7185 3.00107 17.589L4.52248 16.0681C5.01144 15.5791 5.15115 14.878 4.88622 14.2391C4.62172 13.6007 4.02756 13.2037 3.33585 13.2037H1.18407C1.00093 13.2037 0.851852 13.0546 0.851852 12.8715V10.1285C0.851852 9.94537 1.00093 9.7963 1.18407 9.7963H3.33585C4.02756 9.7963 4.62172 9.39933 4.88622 8.76044C5.15115 8.12156 5.01187 7.42048 4.52248 6.93152L3.00107 5.41054C2.87117 5.28063 2.87117 5.0698 3.00107 4.94031L4.94031 3.00107C5.0698 2.87117 5.28063 2.87117 5.41054 3.00107L6.93152 4.52206C7.42006 5.01059 8.1207 5.15072 8.76044 4.8858C9.39933 4.62172 9.7963 4.02756 9.7963 3.33585V1.18407C9.7963 1.00093 9.94537 0.851852 10.1285 0.851852H12.8711C13.0546 0.851852 13.2037 1.00093 13.2037 1.18407V3.33585C13.2037 4.02756 13.6007 4.62172 14.2396 4.88622C14.8793 5.15115 15.5795 5.01144 16.0685 4.52248L17.5895 3.0015C17.7198 2.87159 17.9306 2.87159 18.0597 3.0015L19.9989 4.94074C20.1288 5.07065 20.1288 5.28148 19.9989 5.41096L18.4775 6.93194C17.9886 7.42091 17.8489 8.12198 18.1138 8.76087C18.3783 9.39976 18.9724 9.79672 19.6641 9.79672H21.8159C21.9991 9.7963 22.1481 9.94537 22.1481 10.1285V12.8715Z" fill="#FF3366"/>
<path d="M11.5001 7.66669C9.38621 7.66669 7.66675 9.38615 7.66675 11.5C7.66675 13.6139 9.38621 15.3334 11.5001 15.3334C13.614 15.3334 15.3334 13.6139 15.3334 11.5C15.3334 9.38615 13.614 7.66669 11.5001 7.66669ZM11.5001 14.4815C9.85643 14.4815 8.5186 13.1437 8.5186 11.5C8.5186 9.85637 9.85643 8.51854 11.5001 8.51854C13.1437 8.51854 14.4816 9.85637 14.4816 11.5C14.4816 13.1437 13.1437 14.4815 11.5001 14.4815Z" fill="#FF3366"/>
</svg>
