<svg width="20" height="24" viewBox="0 0 20 24" fill="none" xmlns="http://www.w3.org/2000/svg">
<path d="M13.9696 3.64753C14.8996 2.68074 15.5286 1.33848 15.3565 0C14.0167 0.0464297 12.3929 0.763702 11.4312 1.73041C10.5691 2.58623 9.81435 3.95401 10.0158 5.26623C11.5108 5.36444 13.0381 4.61275 13.9696 3.64753ZM16.8229 12.8911C16.7943 9.89034 19.2694 8.44913 19.3791 8.37949C17.9876 6.34177 15.8204 6.06294 15.0486 6.03149C13.2033 5.84339 11.4506 7.11666 10.5137 7.11666C9.5807 7.11666 8.13749 6.05619 6.60704 6.08467C4.59506 6.11686 2.74119 7.25455 1.70786 9.05765C-0.382194 12.685 1.17216 18.0584 3.20881 21.0007C4.20441 22.4411 5.38983 24.0569 6.94648 23.9985C8.44912 23.94 9.01559 23.028 10.8285 23.028C12.6422 23.028 13.15 23.9985 14.7367 23.9692C16.3513 23.94 17.3731 22.5011 18.3602 21.0562C19.5024 19.3857 19.9732 17.7684 20.0002 17.6867C19.9655 17.6672 16.8561 16.4794 16.8229 12.8911Z" fill="white"/>
</svg>
