<svg width="33" height="26" viewBox="0 0 33 26" fill="none" xmlns="http://www.w3.org/2000/svg">
<rect width="33" height="26" rx="4" fill="#DFE8EA"/>
<rect x="2.10638" y="1.78082" width="28.7872" height="22.4384" rx="4" fill="#DFE8EA"/>
<rect x="2.60638" y="2.28082" width="27.7872" height="21.4384" rx="3.5" stroke="#A5A4A4" stroke-opacity="0.25"/>
<path d="M16.3584 14.7588L16.4951 15.6963L16.6953 14.8516L18.1016 9.89062H18.8926L20.2646 14.8516L20.46 15.7109L20.6113 14.7539L21.7148 9.89062H22.6572L20.9336 17H20.0791L18.6143 11.8193L18.502 11.2773L18.3896 11.8193L16.8711 17H16.0166L14.2979 9.89062H15.2354L16.3584 14.7588ZM26.4365 17H25.5283V10.9795L23.707 11.6484V10.8281L26.2949 9.85645H26.4365V17Z" fill="#3B5C73"/>
<path d="M10.811 9.36782C11.1486 9.00528 11.3769 8.50193 11.3144 8C10.8281 8.01741 10.2387 8.28639 9.88961 8.6489C9.57669 8.96984 9.30273 9.48276 9.37584 9.97484C9.9185 10.0117 10.4729 9.72978 10.811 9.36782ZM11.8467 12.8341C11.8363 11.7089 12.7347 11.1684 12.7745 11.1423C12.2694 10.3782 11.4828 10.2736 11.2027 10.2618C10.5329 10.1913 9.89665 10.6687 9.55659 10.6687C9.21792 10.6687 8.69406 10.2711 8.13853 10.2818C7.40822 10.2938 6.7353 10.7205 6.36022 11.3966C5.60157 12.7569 6.16578 14.7719 6.90504 15.8753C7.26643 16.4154 7.69671 17.0213 8.26174 16.9994C8.80718 16.9775 9.01279 16.6355 9.67085 16.6355C10.3292 16.6355 10.5135 16.9994 11.0895 16.9885C11.6755 16.9775 12.0464 16.4379 12.4047 15.8961C12.8193 15.2696 12.9902 14.6632 13 14.6325C12.9874 14.6252 11.8587 14.1798 11.8467 12.8341Z" fill="#3B5C73"/>
</svg>
