<svg width="20" height="20" viewBox="0 0 20 20" fill="none" xmlns="http://www.w3.org/2000/svg">
<path d="M10 20C15.5228 20 20 15.5228 20 10C20 4.47715 15.5228 0 10 0C4.47715 0 0 4.47715 0 10C0 15.5228 4.47715 20 10 20Z" fill="black"/>
<path d="M5.66351 9.30684L5.16846 8.92664L8.41202 4.7207L11.5724 7.77813L14.5704 5.38209L14.9586 5.86922L11.5328 8.60981L8.47935 5.65536L5.66351 9.30684Z" fill="#CED5E0"/>
<path d="M1.71875 15.6079C3.51677 18.2574 6.55439 20 9.99994 20C13.4455 20 16.4831 18.2574 18.2811 15.6079H1.71875Z" fill="black"/>
<path d="M15.6357 15.2633H13.6833C13.6357 15.2633 13.6001 15.2277 13.6001 15.1802V8.10294C13.6001 8.05542 13.6357 8.01978 13.6833 8.01978H15.6357C15.6833 8.01978 15.7189 8.05542 15.7189 8.10294V15.1802C15.7189 15.2237 15.6833 15.2633 15.6357 15.2633Z" fill="white"/>
<path d="M12.5308 15.2635H10.5783C10.5308 15.2635 10.4951 15.2278 10.4951 15.1803V10.1823C10.4951 10.1348 10.5308 10.0991 10.5783 10.0991H12.5308C12.5783 10.0991 12.6139 10.1348 12.6139 10.1823V15.1803C12.61 15.2239 12.5743 15.2635 12.5308 15.2635Z" fill="white"/>
<path d="M9.42187 15.2634H7.4694C7.42187 15.2634 7.38623 15.2278 7.38623 15.1802V7.65153C7.38623 7.604 7.42187 7.56836 7.4694 7.56836H9.42187C9.4694 7.56836 9.50504 7.604 9.50504 7.65153V15.1802C9.50504 15.2238 9.4694 15.2634 9.42187 15.2634Z" fill="white"/>
<path d="M6.31689 15.2635H4.36442C4.31689 15.2635 4.28125 15.2278 4.28125 15.1803V11.4694C4.28125 11.4219 4.31689 11.3862 4.36442 11.3862H6.31689C6.36442 11.3862 6.40006 11.4219 6.40006 11.4694V15.1803C6.40006 15.2239 6.36046 15.2635 6.31689 15.2635Z" fill="white"/>
<path d="M17.0969 14.9307H2.90283V15.6079H17.0969V14.9307Z" fill="#CED5E0"/>
<path d="M14.7645 6.79209C15.4075 6.79209 15.9288 6.27079 15.9288 5.62774C15.9288 4.98468 15.4075 4.46338 14.7645 4.46338C14.1214 4.46338 13.6001 4.98468 13.6001 5.62774C13.6001 6.27079 14.1214 6.79209 14.7645 6.79209Z" fill="#E6E9EE"/>
<path d="M14.7641 6.30489C15.1382 6.30489 15.4414 6.00169 15.4414 5.62767C15.4414 5.25364 15.1382 4.95044 14.7641 4.95044C14.3901 4.95044 14.0869 5.25364 14.0869 5.62767C14.0869 6.00169 14.3901 6.30489 14.7641 6.30489Z" fill="white"/>
<path d="M11.5525 9.24351C12.1956 9.24351 12.7169 8.72221 12.7169 8.07915C12.7169 7.4361 12.1956 6.91479 11.5525 6.91479C10.9095 6.91479 10.3882 7.4361 10.3882 8.07915C10.3882 8.72221 10.9095 9.24351 11.5525 9.24351Z" fill="#E6E9EE"/>
<path d="M11.5522 8.75656C11.9263 8.75656 12.2295 8.45335 12.2295 8.07933C12.2295 7.7053 11.9263 7.4021 11.5522 7.4021C11.1782 7.4021 10.875 7.7053 10.875 8.07933C10.875 8.45335 11.1782 8.75656 11.5522 8.75656Z" fill="white"/>
<path d="M8.44756 6.35239C9.09062 6.35239 9.61192 5.83109 9.61192 5.18804C9.61192 4.54498 9.09062 4.02368 8.44756 4.02368C7.8045 4.02368 7.2832 4.54498 7.2832 5.18804C7.2832 5.83109 7.8045 6.35239 8.44756 6.35239Z" fill="#E6E9EE"/>
<path d="M8.44774 5.86544C8.82176 5.86544 9.12496 5.56224 9.12496 5.18821C9.12496 4.81419 8.82176 4.51099 8.44774 4.51099C8.07371 4.51099 7.77051 4.81419 7.77051 5.18821C7.77051 5.56224 8.07371 5.86544 8.44774 5.86544Z" fill="white"/>
<path d="M5.33867 10.2811C5.98173 10.2811 6.50303 9.75981 6.50303 9.11675C6.50303 8.47369 5.98173 7.95239 5.33867 7.95239C4.69562 7.95239 4.17432 8.47369 4.17432 9.11675C4.17432 9.75981 4.69562 10.2811 5.33867 10.2811Z" fill="#E6E9EE"/>
<path d="M5.33885 9.79415C5.71287 9.79415 6.01608 9.49095 6.01608 9.11692C6.01608 8.7429 5.71287 8.4397 5.33885 8.4397C4.96483 8.4397 4.66162 8.7429 4.66162 9.11692C4.66162 9.49095 4.96483 9.79415 5.33885 9.79415Z" fill="white"/>
</svg>
