<svg width="22" height="18" viewBox="0 0 22 18" fill="none" xmlns="http://www.w3.org/2000/svg">
<path d="M21.5618 1.45199e-08H0.438238C0.196195 1.45199e-08 0 0.197495 0 0.441141V14.3938C0 14.6375 0.196195 14.835 0.438238 14.835H8.16595V17.1177H6.61139C6.36934 17.1177 6.17315 17.3152 6.17315 17.5588C6.17315 17.8025 6.36934 18 6.61139 18H15.3886V18C15.6307 18 15.8269 17.8025 15.8269 17.5589C15.8269 17.3152 15.6307 17.1177 15.3886 17.1177H13.834V14.835H21.5618C21.8038 14.835 22 14.6375 22 14.3939V0.441141C22 0.197495 21.8038 1.45199e-08 21.5618 1.45199e-08ZM12.9576 17.1178H9.04243V14.8351H12.9576V17.1178ZM21.1235 13.9527H0.876477V0.882281H21.1235V13.9527H21.1235Z" fill="black"/>
<path d="M10.2546 1.91406H2.39527C2.15323 1.91406 1.95703 2.11156 1.95703 2.3552V8.05677C1.95703 8.30042 2.15323 8.49791 2.39527 8.49791H10.2546C10.4967 8.49791 10.6929 8.30042 10.6929 8.05677V2.35525C10.6929 2.1116 10.4967 1.91406 10.2546 1.91406ZM3.47366 7.61563L4.8664 6.21366L6.25915 7.61563H3.47366ZM9.8164 7.61567H7.4933V7.61563C7.48208 7.60105 7.47022 7.58691 7.45694 7.57354L6.70405 6.81566L8.40918 5.09924L9.81644 6.51583V7.61567H9.8164ZM9.8164 5.26801L8.71898 4.16336C8.54784 3.99109 8.27034 3.99113 8.0992 4.16336L6.08418 6.19173L5.17625 5.27779C5.00511 5.10551 4.72761 5.10551 4.55643 5.27779L2.83342 7.0122V2.79634H9.8164V5.26801Z" fill="black"/>
<path d="M19.9915 2.70863L19.1982 1.91005C18.7944 1.5036 18.1374 1.50364 17.7337 1.91005L12.0469 7.63449C11.994 7.68774 11.9576 7.75124 11.9374 7.81862L11.9373 7.81867L11.9373 7.81901C11.9369 7.82014 11.9366 7.82122 11.9363 7.8223L11.3207 9.86978H2.39527C2.15323 9.86978 1.95703 10.0673 1.95703 10.3109C1.95703 10.5546 2.15323 10.7521 2.39527 10.7521H11.6456C11.6457 10.7521 11.6459 10.7521 11.646 10.7521C11.6461 10.7521 11.6462 10.7521 11.6463 10.7521H11.6597C11.724 10.7521 11.7849 10.7378 11.8399 10.7127L14.1218 10.0176L14.1218 10.0175C14.1903 9.99669 14.2533 9.9591 14.3047 9.90728L19.9915 4.18284C20.1871 3.98595 20.2948 3.72413 20.2948 3.44571C20.2948 3.16725 20.1871 2.90548 19.9915 2.70863ZM12.3025 9.64997L12.5643 8.77924L13.1675 9.38647L12.3025 9.64997ZM13.9948 8.97146L12.9765 7.94644L17.4254 3.46807L18.4437 4.49309L13.9948 8.97146ZM19.3718 3.55899L19.0635 3.86925L18.0452 2.84419L18.3535 2.53393C18.4155 2.47148 18.5165 2.47148 18.5785 2.53393L19.3718 3.33252C19.4123 3.37331 19.4183 3.42097 19.4183 3.44576C19.4184 3.47054 19.4123 3.51821 19.3718 3.55899Z" fill="black"/>
<path d="M17.705 11.9915H2.39527C2.15323 11.9915 1.95703 12.1889 1.95703 12.4326C1.95703 12.6762 2.15323 12.8737 2.39527 12.8737H17.705C17.947 12.8737 18.1432 12.6762 18.1432 12.4326C18.1432 12.1889 17.947 11.9915 17.705 11.9915Z" fill="black"/>
<path d="M19.651 11.9915H19.4143C19.1723 11.9915 18.9761 12.1889 18.9761 12.4326C18.9761 12.6762 19.1723 12.8737 19.4143 12.8737H19.651C19.8931 12.8737 20.0893 12.6762 20.0893 12.4326C20.0893 12.1889 19.8931 11.9915 19.651 11.9915Z" fill="black"/>
</svg>
