<svg width="20" height="20" viewBox="0 0 20 20" fill="none" xmlns="http://www.w3.org/2000/svg">
<path d="M17.0653 2.93023C15.1751 1.04017 12.6675 0 9.99497 0C7.32245 0 4.81486 1.04017 2.92464 2.93023C-0.728927 6.58351 -0.982647 12.4313 2.29457 16.3763C1.97319 17.0233 1.45729 17.7759 0.691905 18.1522C0.324011 18.334 0.116806 18.7273 0.180236 19.1332C0.243666 19.5391 0.556588 19.8562 0.96254 19.9197C1.15283 19.9493 1.42346 19.9789 1.7533 19.9789C2.63709 19.9789 3.93952 19.7717 5.27155 18.8118C6.75581 19.611 8.37962 20 9.99074 20C12.5787 20 15.1413 18.9979 17.0695 17.0698C18.9597 15.1797 20 12.6723 20 10C20 7.3277 18.9555 4.8203 17.0653 2.93023ZM16.2576 16.2622C13.4033 19.1163 8.98432 19.6829 5.50836 17.6406C5.28001 17.5053 4.99669 17.5476 4.81486 17.7294C4.79794 17.7378 4.78103 17.7505 4.76834 17.7632C3.62237 18.6512 2.49755 18.8372 1.7533 18.8372H1.74907C2.60749 18.2114 3.14876 17.2812 3.46591 16.5581C3.51666 16.4355 3.52511 16.3087 3.49551 16.1903C3.48283 16.0761 3.43631 15.9619 3.35597 15.8689C0.260581 12.3721 0.421271 7.0444 3.72809 3.73784C7.18291 0.283298 12.8028 0.283298 16.2534 3.73784C19.7125 7.19239 19.7125 12.8076 16.2576 16.2622Z" fill="black"/>
<path d="M9.99493 10.7019C10.3826 10.7019 10.6969 10.3876 10.6969 10C10.6969 9.61235 10.3826 9.2981 9.99493 9.2981C9.60725 9.2981 9.29297 9.61235 9.29297 10C9.29297 10.3876 9.60725 10.7019 9.99493 10.7019Z" fill="black"/>
<path d="M13.6146 10.7019C14.0022 10.7019 14.3165 10.3876 14.3165 10C14.3165 9.61235 14.0022 9.2981 13.6146 9.2981C13.2269 9.2981 12.9126 9.61235 12.9126 10C12.9126 10.3876 13.2269 10.7019 13.6146 10.7019Z" fill="black"/>
<path d="M6.3753 10.7019C6.76298 10.7019 7.07726 10.3876 7.07726 10C7.07726 9.61235 6.76298 9.2981 6.3753 9.2981C5.98762 9.2981 5.67334 9.61235 5.67334 10C5.67334 10.3876 5.98762 10.7019 6.3753 10.7019Z" fill="black"/>
</svg>
