<svg width="31" height="19" viewBox="0 0 31 19" fill="none" xmlns="http://www.w3.org/2000/svg">
<path d="M24.0182 19H6.04041C2.70984 19 0 16.2766 0 12.9281C0 9.62679 2.63483 6.93163 5.90164 6.85716C7.06527 2.80074 10.7409 6.47297e-08 14.9688 6.47297e-08C18.4738 6.47297e-08 21.63 1.9099 23.2849 5.00665C23.5475 4.97742 23.7856 4.96328 24.0172 4.96328C27.8673 4.96328 30.9991 8.11094 30.9991 11.9798C31.0009 15.8514 27.8682 19 24.0182 19ZM6.04041 7.79891C3.22649 7.79891 0.937661 10.1 0.937661 12.9281C0.937661 15.7562 3.22649 18.0564 6.04041 18.0564H24.0182C27.3516 18.0564 30.0623 15.3301 30.0623 11.9798C30.0623 8.63036 27.3506 5.90598 24.0182 5.90598C23.7388 5.90598 23.4434 5.93049 23.089 5.98422C22.8883 6.01439 22.6895 5.90975 22.5995 5.72687C21.1517 2.77718 18.2272 0.943637 14.9688 0.943637C11.0456 0.943637 7.65131 3.61995 6.71365 7.452C6.66114 7.66693 6.45579 7.80739 6.2467 7.81022L6.04041 7.79891Z" fill="white"/>
<path d="M24.0182 18.9999C23.7594 18.9999 23.5493 18.7888 23.5493 18.5286C23.5493 18.2684 23.7594 18.0572 24.0182 18.0572C27.3516 18.0572 30.0623 15.331 30.0623 11.9806C30.0623 8.63123 27.3506 5.90684 24.0182 5.90684C22.2722 5.90684 20.6116 6.66571 19.463 7.98831C19.2933 8.18439 18.997 8.20513 18.802 8.03356C18.6069 7.86293 18.5872 7.56504 18.757 7.36896C20.0828 5.84085 22.0003 4.96509 24.0182 4.96509C27.8682 4.96509 31 8.11274 31 11.9816C31.0009 15.8513 27.8682 18.9999 24.0182 18.9999Z" fill="white"/>
</svg>
