<svg width="20" height="21" viewBox="0 0 20 21" fill="none" xmlns="http://www.w3.org/2000/svg">
<path d="M4.48046 0.691L19.0406 0.691C19.4662 0.691 19.811 1.04509 19.811 1.48212L19.811 16.4328C19.811 16.8698 19.4662 17.2239 19.0406 17.2239L4.48046 17.2239C4.05486 17.2239 3.71003 16.8694 3.71003 16.4328L3.71003 1.48212C3.71003 1.04543 4.05486 0.691 4.48046 0.691ZM18.2702 2.27357L5.25123 2.27357L5.25123 15.6416L18.2702 15.6416V2.27357Z" fill="black"/>
<path d="M1.18163 4.18675L2.74591 4.18675C3.17151 4.18675 3.51635 4.54118 3.51635 4.97787C3.51635 5.4149 3.17151 5.76899 2.74591 5.76899H1.95207L1.95207 19.1374H14.9713V18.2573C14.9713 17.8202 15.3162 17.4661 15.7418 17.4661C16.1674 17.4661 16.5122 17.8206 16.5122 18.2573V19.9289C16.5122 20.3655 16.1674 20.72 15.7418 20.72L1.18163 20.72C0.756033 20.72 0.4112 20.3655 0.4112 19.9289L0.4112 4.97787C0.4112 4.54118 0.756033 4.18675 1.18163 4.18675Z" fill="black"/>
</svg>
