<svg width="19" height="16" viewBox="0 0 19 16" fill="none" xmlns="http://www.w3.org/2000/svg">
<path d="M18.3448 -3.61227e-08H0.655166C0.293313 -3.61227e-08 0 0.292367 0 0.653053V11.102H19V0.653053C19 0.292367 18.7067 -3.61227e-08 18.3448 -3.61227e-08ZM18.0172 10.1224H0.982768V0.979598H18.0172V10.1224Z" fill="#4353FF"/>
<path d="M7.5348 5.06113C7.62535 5.06113 7.6986 5.13415 7.6986 5.2244H8.18997V4.73462H7.5348C7.44425 4.73462 7.371 4.6616 7.371 4.57135C7.371 4.48109 7.44425 4.40808 7.5348 4.40808H8.18997V2.28564H5.2417V5.2244H7.371C7.37104 5.13415 7.44429 5.06113 7.5348 5.06113Z" fill="#4353FF"/>
<path d="M0.98291 10.1223H18.0174V0.979492H0.98291V10.1223ZM8.18977 9.30598H7.53461C7.44406 9.30598 7.37081 9.23296 7.37081 9.14271C7.37081 9.05245 7.44406 8.97944 7.53461 8.97944H8.18977C8.28032 8.97944 8.35357 9.05245 8.35357 9.14271C8.35357 9.23296 8.28028 9.30598 8.18977 9.30598ZM7.53457 7.67333C7.62512 7.67333 7.69837 7.74635 7.69837 7.8366V8.48966C7.69837 8.57991 7.62512 8.65293 7.53457 8.65293C7.44402 8.65293 7.37077 8.57991 7.37077 8.48966V7.8366C7.37081 7.74635 7.44406 7.67333 7.53457 7.67333ZM7.37081 7.18355V6.5305C7.37081 6.44024 7.44406 6.36722 7.53461 6.36722C7.62515 6.36722 7.69841 6.44024 7.69841 6.5305V7.18355C7.69841 7.27381 7.62515 7.34682 7.53461 7.34682C7.44406 7.34682 7.37081 7.27381 7.37081 7.18355ZM9.50011 9.30598H8.84494C8.75439 9.30598 8.68114 9.23296 8.68114 9.14271C8.68114 9.05245 8.75439 8.97944 8.84494 8.97944H9.50011C9.59065 8.97944 9.66391 9.05245 9.66391 9.14271C9.66391 9.23296 9.59065 9.30598 9.50011 9.30598ZM12.2846 8.48966C12.2846 8.57991 12.2113 8.65293 12.1208 8.65293C12.0302 8.65293 11.957 8.57991 11.957 8.48966V7.8366C11.957 7.74635 12.0302 7.67333 12.1208 7.67333C12.2113 7.67333 12.2846 7.74635 12.2846 7.8366V8.48966ZM12.2846 7.18355C12.2846 7.27381 12.2113 7.34682 12.1208 7.34682C12.0302 7.34682 11.957 7.27381 11.957 7.18355V6.5305C11.957 6.44024 12.0302 6.36722 12.1208 6.36722C12.2113 6.36722 12.2846 6.44024 12.2846 6.5305V7.18355ZM12.2846 5.87744C12.2846 5.9677 12.2113 6.04072 12.1208 6.04072C12.0302 6.04072 11.957 5.9677 11.957 5.87744V5.22439C11.957 5.13414 12.0302 5.06112 12.1208 5.06112C12.2113 5.06112 12.2846 5.13414 12.2846 5.22439V5.87744ZM13.7588 6.20395V3.91825V1.95909C13.7588 1.77877 13.9055 1.63255 14.0864 1.63255H17.0346C17.2156 1.63255 17.3622 1.77877 17.3622 1.95909V3.91829V6.20399V9.14275C17.3622 9.32307 17.2156 9.46929 17.0346 9.46929H14.0864C13.9055 9.46929 13.7588 9.32307 13.7588 9.14275V6.20395ZM11.4656 4.40807H12.1208C12.2113 4.40807 12.2846 4.48108 12.2846 4.57134C12.2846 4.66159 12.2113 4.73461 12.1208 4.73461H11.4656C11.3751 4.73461 11.3018 4.66159 11.3018 4.57134C11.3018 4.48108 11.3751 4.40807 11.4656 4.40807ZM11.4656 8.97947H12.1208C12.2113 8.97947 12.2846 9.05249 12.2846 9.14275C12.2846 9.233 12.2113 9.30602 12.1208 9.30602H11.4656C11.3751 9.30602 11.3018 9.233 11.3018 9.14275C11.3018 9.05249 11.3751 8.97947 11.4656 8.97947ZM10.1553 4.40807H10.8104C10.901 4.40807 10.9742 4.48108 10.9742 4.57134C10.9742 4.66159 10.901 4.73461 10.8104 4.73461H10.1553C10.0647 4.73461 9.99147 4.66159 9.99147 4.57134C9.99147 4.48108 10.0647 4.40807 10.1553 4.40807ZM10.1553 8.97947H10.8104C10.901 8.97947 10.9742 9.05249 10.9742 9.14275C10.9742 9.233 10.901 9.30602 10.8104 9.30602H10.1553C10.0647 9.30602 9.99147 9.233 9.99147 9.14275C9.99147 9.05249 10.0647 8.97947 10.1553 8.97947ZM4.5863 1.95909C4.5863 1.77862 4.733 1.63255 4.91391 1.63255H8.51734C8.69825 1.63255 8.84494 1.77858 8.84494 1.95909V4.40807H9.50011C9.59065 4.40807 9.66391 4.48108 9.66391 4.57134C9.66391 4.66159 9.59065 4.73461 9.50011 4.73461H8.84494V5.55094C8.84494 5.58634 8.83911 5.62037 8.82869 5.65225L9.68832 6.41994C9.75954 6.48352 9.74098 6.59922 9.65344 6.63758L9.3277 6.7801L9.61863 7.44063C9.65496 7.52319 9.61719 7.61951 9.53447 7.65583C9.51306 7.66508 9.49064 7.66956 9.46875 7.66956C9.40555 7.66956 9.34558 7.6332 9.31857 7.57198L9.02759 6.91138L8.70174 7.05394C8.61419 7.09226 8.51615 7.02753 8.51741 6.93224L8.53118 5.87678C8.52654 5.877 8.52201 5.87748 8.51734 5.87748H7.69837C7.69837 5.96774 7.62512 6.04075 7.53457 6.04075C7.44402 6.04075 7.37077 5.96774 7.37077 5.87748H4.91387C4.73296 5.87748 4.58627 5.73145 4.58627 5.55094V1.95909H4.5863ZM1.63808 1.95909C1.63808 1.77877 1.78477 1.63255 1.96568 1.63255H2.94845C3.12935 1.63255 3.27605 1.77877 3.27605 1.95909V9.14275C3.27605 9.32307 3.12935 9.46929 2.94845 9.46929H1.96568C1.78477 9.46929 1.63808 9.32307 1.63808 9.14275V1.95909Z" fill="#4353FF"/>
<path d="M0 12.4082C0 12.7688 0.293312 13.0612 0.655166 13.0612H6.8793H12.1207H18.3448C18.7066 13.0612 19 12.7688 19 12.4082V11.1021H0V12.4082ZM9.5 11.5918C9.77138 11.5918 9.99136 11.8111 9.99136 12.0816C9.99136 12.3521 9.77134 12.5714 9.5 12.5714C9.22862 12.5714 9.00863 12.3521 9.00863 12.0816C9.00863 11.8111 9.22862 11.5918 9.5 11.5918Z" fill="#4353FF"/>
<path d="M6.59277 15.347H12.4074L12.2027 13.7144H6.79751L6.59277 15.347Z" fill="#4353FF"/>
<path d="M6.55172 15.3469C6.37081 15.3469 6.22412 15.4931 6.22412 15.6735C6.22412 15.8538 6.37081 16 6.55172 16H12.4483C12.6292 16 12.7759 15.8538 12.7759 15.6735C12.7759 15.4931 12.6292 15.3469 12.4483 15.3469H12.4074H6.59269H6.55172Z" fill="#4353FF"/>
<path d="M6.79736 13.7143H12.2026L12.1207 13.0613H6.87926L6.79736 13.7143Z" fill="#4353FF"/>
<path d="M9.50015 12.5714C9.77153 12.5714 9.99152 12.3521 9.99152 12.0816C9.99152 11.8111 9.77153 11.5918 9.50015 11.5918C9.22878 11.5918 9.00879 11.8111 9.00879 12.0816C9.00879 12.3521 9.22878 12.5714 9.50015 12.5714Z" fill="#4353FF"/>
<path d="M1.9653 9.46928H2.94806C3.12897 9.46928 3.27567 9.32306 3.27567 9.14273V1.95911C3.27567 1.77879 3.12897 1.63257 2.94806 1.63257H1.9653C1.78439 1.63257 1.6377 1.77879 1.6377 1.95911V9.14277C1.6377 9.32309 1.78435 9.46928 1.9653 9.46928ZM2.29286 2.28562H2.62046C2.80137 2.28562 2.94806 2.43184 2.94806 2.61217C2.94806 2.79249 2.80137 2.93871 2.62046 2.93871H2.29286C2.11195 2.93871 1.96526 2.79249 1.96526 2.61217C1.9653 2.43184 2.11195 2.28562 2.29286 2.28562ZM2.29286 3.26522H2.62046C2.80137 3.26522 2.94806 3.41144 2.94806 3.59176C2.94806 3.77209 2.80137 3.91831 2.62046 3.91831H2.29286C2.11195 3.91831 1.96526 3.77209 1.96526 3.59176C1.9653 3.41144 2.11195 3.26522 2.29286 3.26522ZM2.29286 4.24482H2.62046C2.80137 4.24482 2.94806 4.39104 2.94806 4.57136C2.94806 4.75169 2.80137 4.89791 2.62046 4.89791H2.29286C2.11195 4.89791 1.96526 4.75169 1.96526 4.57136C1.96526 4.39104 2.11195 4.24482 2.29286 4.24482ZM2.29286 5.22442H2.62046C2.80137 5.22442 2.94806 5.37064 2.94806 5.55096C2.94806 5.73128 2.80137 5.8775 2.62046 5.8775H2.29286C2.11195 5.8775 1.96526 5.73128 1.96526 5.55096C1.96526 5.37064 2.11195 5.22442 2.29286 5.22442ZM2.29286 6.20398H2.62046C2.80137 6.20398 2.94806 6.3502 2.94806 6.53052C2.94806 6.71085 2.80137 6.85707 2.62046 6.85707H2.29286C2.11195 6.85707 1.96526 6.71085 1.96526 6.53052C1.96526 6.3502 2.11195 6.20398 2.29286 6.20398ZM1.9653 7.83663C1.9653 7.6563 2.11199 7.51008 2.2929 7.51008H2.6205C2.80141 7.51008 2.9481 7.6563 2.9481 7.83663V8.48968C2.9481 8.67 2.80141 8.81622 2.6205 8.81622H2.2929C2.11199 8.81622 1.9653 8.67 1.9653 8.48968V7.83663Z" fill="#4353FF"/>
<path d="M2.29293 2.93873H2.62054C2.80144 2.93873 2.94814 2.79251 2.94814 2.61219C2.94814 2.43186 2.80144 2.28564 2.62054 2.28564H2.29293C2.11203 2.28564 1.96533 2.43186 1.96533 2.61219C1.96537 2.79255 2.11203 2.93873 2.29293 2.93873Z" fill="#4353FF"/>
<path d="M2.29293 3.91847H2.62054C2.80144 3.91847 2.94814 3.77225 2.94814 3.59193C2.94814 3.4116 2.80144 3.26538 2.62054 3.26538H2.29293C2.11203 3.26538 1.96533 3.4116 1.96533 3.59193C1.96537 3.77229 2.11203 3.91847 2.29293 3.91847Z" fill="#4353FF"/>
<path d="M2.29293 4.89796H2.62054C2.80144 4.89796 2.94814 4.75174 2.94814 4.57142C2.94814 4.39109 2.80144 4.24487 2.62054 4.24487H2.29293C2.11203 4.24487 1.96533 4.39109 1.96533 4.57142C1.96533 4.75174 2.11203 4.89796 2.29293 4.89796Z" fill="#4353FF"/>
<path d="M2.29293 5.87746H2.62054C2.80144 5.87746 2.94814 5.73123 2.94814 5.55091C2.94814 5.37059 2.80144 5.22437 2.62054 5.22437H2.29293C2.11203 5.22437 1.96533 5.37059 1.96533 5.55091C1.96533 5.73123 2.11203 5.87746 2.29293 5.87746Z" fill="#4353FF"/>
<path d="M2.29293 6.85719H2.62054C2.80144 6.85719 2.94814 6.71097 2.94814 6.53065C2.94814 6.35032 2.80144 6.2041 2.62054 6.2041H2.29293C2.11203 6.2041 1.96533 6.35032 1.96533 6.53065C1.96533 6.71097 2.11203 6.85719 2.29293 6.85719Z" fill="#4353FF"/>
<path d="M2.29293 8.8164H2.62054C2.80144 8.8164 2.94814 8.67018 2.94814 8.48985V7.8368C2.94814 7.65647 2.80144 7.51025 2.62054 7.51025H2.29293C2.11203 7.51025 1.96533 7.65647 1.96533 7.8368V8.48985C1.96537 8.67018 2.11199 8.8164 2.29293 8.8164Z" fill="#4353FF"/>
<path d="M17.3623 1.95911C17.3623 1.77879 17.2156 1.63257 17.0347 1.63257H14.0864C13.9055 1.63257 13.7588 1.77879 13.7588 1.95911V3.91831H17.3622V1.95911H17.3623ZM16.8709 3.59176H15.5606H15.233H14.2502C14.1597 3.59176 14.0864 3.51867 14.0864 3.42849C14.0864 3.33831 14.1597 3.26522 14.2502 3.26522H15.233H15.5606H16.8709C16.9614 3.26522 17.0347 3.33831 17.0347 3.42849C17.0347 3.51867 16.9613 3.59176 16.8709 3.59176ZM16.8709 2.93867H16.5433H16.2157H14.2502C14.1597 2.93867 14.0864 2.86558 14.0864 2.7754C14.0864 2.68522 14.1597 2.61213 14.2502 2.61213H16.2157H16.5433H16.8709C16.9614 2.61213 17.0347 2.68522 17.0347 2.7754C17.0347 2.86558 16.9613 2.93867 16.8709 2.93867ZM16.8709 2.28562H14.9054H14.5778H14.2502C14.1597 2.28562 14.0864 2.21253 14.0864 2.12235C14.0864 2.03217 14.1597 1.95908 14.2502 1.95908H14.5778H14.9054H16.8709C16.9614 1.95908 17.0347 2.03217 17.0347 2.12235C17.0347 2.21253 16.9613 2.28562 16.8709 2.28562Z" fill="#4353FF"/>
<path d="M14.0864 9.4694H17.0346C17.2155 9.4694 17.3622 9.32318 17.3622 9.14286V6.2041H13.7588V9.14286C13.7588 9.32322 13.9054 9.4694 14.0864 9.4694ZM15.5605 6.53065H16.8708C16.9613 6.53065 17.0346 6.60374 17.0346 6.69392C17.0346 6.7841 16.9613 6.85719 16.8708 6.85719H15.5605C15.47 6.85719 15.3967 6.7841 15.3967 6.69392C15.3967 6.60374 15.4701 6.53065 15.5605 6.53065ZM15.5605 7.1837H16.8708C16.9613 7.1837 17.0346 7.25679 17.0346 7.34697C17.0346 7.43715 16.9613 7.51024 16.8708 7.51024H15.5605C15.47 7.51024 15.3967 7.43715 15.3967 7.34697C15.3967 7.25679 15.4701 7.1837 15.5605 7.1837ZM15.5605 7.83675H16.8708C16.9613 7.83675 17.0346 7.90984 17.0346 8.00002C17.0346 8.09021 16.9613 8.1633 16.8708 8.1633H15.5605C15.47 8.1633 15.3967 8.09021 15.3967 8.00002C15.3967 7.90984 15.4701 7.83675 15.5605 7.83675ZM15.5605 8.4898H16.8708C16.9613 8.4898 17.0346 8.5629 17.0346 8.65308C17.0346 8.74326 16.9613 8.81635 16.8708 8.81635H15.5605C15.47 8.81635 15.3967 8.74326 15.3967 8.65308C15.3967 8.56293 15.4701 8.4898 15.5605 8.4898ZM14.9053 6.53065C14.9958 6.53065 15.0691 6.60374 15.0691 6.69392C15.0691 6.7841 14.9958 6.85719 14.9053 6.85719C14.8148 6.85719 14.7415 6.7841 14.7415 6.69392C14.7415 6.60374 14.8149 6.53065 14.9053 6.53065ZM14.9053 7.1837C14.9958 7.1837 15.0691 7.25679 15.0691 7.34697C15.0691 7.43715 14.9958 7.51024 14.9053 7.51024C14.8148 7.51024 14.7415 7.43715 14.7415 7.34697C14.7415 7.25679 14.8149 7.1837 14.9053 7.1837ZM14.9053 7.83675C14.9958 7.83675 15.0691 7.90984 15.0691 8.00002C15.0691 8.09021 14.9958 8.1633 14.9053 8.1633C14.8148 8.1633 14.7415 8.09021 14.7415 8.00002C14.7415 7.90984 14.8149 7.83675 14.9053 7.83675ZM14.9053 8.4898C14.9958 8.4898 15.0691 8.5629 15.0691 8.65308C15.0691 8.74326 14.9958 8.81635 14.9053 8.81635C14.8148 8.81635 14.7415 8.74326 14.7415 8.65308C14.7415 8.56293 14.8149 8.4898 14.9053 8.4898ZM14.2502 6.53065C14.3406 6.53065 14.414 6.60374 14.414 6.69392C14.414 6.7841 14.3406 6.85719 14.2502 6.85719C14.1597 6.85719 14.0864 6.7841 14.0864 6.69392C14.0864 6.60374 14.1597 6.53065 14.2502 6.53065ZM14.2502 7.1837C14.3406 7.1837 14.414 7.25679 14.414 7.34697C14.414 7.43715 14.3406 7.51024 14.2502 7.51024C14.1597 7.51024 14.0864 7.43715 14.0864 7.34697C14.0864 7.25679 14.1597 7.1837 14.2502 7.1837ZM14.2502 7.83675C14.3406 7.83675 14.414 7.90984 14.414 8.00002C14.414 8.09021 14.3406 8.1633 14.2502 8.1633C14.1597 8.1633 14.0864 8.09021 14.0864 8.00002C14.0864 7.90984 14.1597 7.83675 14.2502 7.83675ZM14.2502 8.4898C14.3406 8.4898 14.414 8.5629 14.414 8.65308C14.414 8.74326 14.3406 8.81635 14.2502 8.81635C14.1597 8.81635 14.0864 8.74326 14.0864 8.65308C14.0864 8.56293 14.1597 8.4898 14.2502 8.4898Z" fill="#4353FF"/>
<path d="M17.3622 3.91846H13.7588V6.20416H17.3622V3.91846ZM14.5778 5.87765H14.2502C14.1597 5.87765 14.0864 5.80456 14.0864 5.71438C14.0864 5.6242 14.1597 5.55111 14.2502 5.55111H14.5778C14.6682 5.55111 14.7416 5.6242 14.7416 5.71438C14.7416 5.80456 14.6682 5.87765 14.5778 5.87765ZM14.5778 5.2246H14.2502C14.1597 5.2246 14.0864 5.15151 14.0864 5.06133C14.0864 4.97115 14.1597 4.89805 14.2502 4.89805H14.5778C14.6682 4.89805 14.7416 4.97115 14.7416 5.06133C14.7416 5.15151 14.6682 5.2246 14.5778 5.2246ZM14.5778 4.57151H14.2502C14.1597 4.57151 14.0864 4.49842 14.0864 4.40824C14.0864 4.31806 14.1597 4.24496 14.2502 4.24496H14.5778C14.6682 4.24496 14.7416 4.31806 14.7416 4.40824C14.7416 4.49842 14.6682 4.57151 14.5778 4.57151ZM16.8709 5.87765H15.2329C15.1424 5.87765 15.0691 5.80456 15.0691 5.71438C15.0691 5.6242 15.1424 5.55111 15.2329 5.55111H16.8709C16.9613 5.55111 17.0347 5.6242 17.0347 5.71438C17.0347 5.80456 16.9613 5.87765 16.8709 5.87765ZM16.8709 5.2246H15.2329C15.1424 5.2246 15.0691 5.15151 15.0691 5.06133C15.0691 4.97115 15.1424 4.89805 15.2329 4.89805H16.8709C16.9613 4.89805 17.0347 4.97115 17.0347 5.06133C17.0347 5.15151 16.9613 5.2246 16.8709 5.2246ZM16.8709 4.57151H15.2329C15.1424 4.57151 15.0691 4.49842 15.0691 4.40824C15.0691 4.31806 15.1424 4.24496 15.2329 4.24496H16.8709C16.9613 4.24496 17.0347 4.31806 17.0347 4.40824C17.0347 4.49842 16.9613 4.57151 16.8709 4.57151Z" fill="#4353FF"/>
<path d="M16.8708 1.95923H14.9053C14.9957 1.95923 15.0691 2.03232 15.0691 2.1225C15.0691 2.21268 14.9957 2.28577 14.9053 2.28577H16.8708C16.9613 2.28577 17.0346 2.21268 17.0346 2.1225C17.0346 2.03232 16.9612 1.95923 16.8708 1.95923Z" fill="#4353FF"/>
<path d="M14.414 2.1225C14.414 2.03232 14.4874 1.95923 14.5778 1.95923H14.2502C14.1598 1.95923 14.0864 2.03232 14.0864 2.1225C14.0864 2.21268 14.1598 2.28577 14.2502 2.28577H14.5778C14.4874 2.28577 14.414 2.21268 14.414 2.1225Z" fill="#4353FF"/>
<path d="M16.8709 3.26538H15.5605C15.651 3.26538 15.7243 3.33847 15.7243 3.42865C15.7243 3.51883 15.651 3.59193 15.5605 3.59193H16.8709C16.9614 3.59193 17.0347 3.51883 17.0347 3.42865C17.0347 3.33847 16.9613 3.26538 16.8709 3.26538Z" fill="#4353FF"/>
<path d="M15.0692 3.42865C15.0692 3.33847 15.1425 3.26538 15.233 3.26538H14.2502C14.1598 3.26538 14.0864 3.33847 14.0864 3.42865C14.0864 3.51883 14.1598 3.59193 14.2502 3.59193H15.233C15.1425 3.59193 15.0692 3.5188 15.0692 3.42865Z" fill="#4353FF"/>
<path d="M16.8706 4.24487H15.2326C15.1422 4.24487 15.0688 4.31796 15.0688 4.40815C15.0688 4.49833 15.1422 4.57142 15.2326 4.57142H16.8706C16.9611 4.57142 17.0344 4.49833 17.0344 4.40815C17.0344 4.31796 16.961 4.24487 16.8706 4.24487Z" fill="#4353FF"/>
<path d="M16.052 2.77558C16.052 2.6854 16.1253 2.6123 16.2158 2.6123H14.2502C14.1598 2.6123 14.0864 2.6854 14.0864 2.77558C14.0864 2.86576 14.1598 2.93885 14.2502 2.93885H16.2158C16.1253 2.93881 16.052 2.86572 16.052 2.77558Z" fill="#4353FF"/>
<path d="M16.8711 2.6123H16.5435C16.6339 2.6123 16.7073 2.6854 16.7073 2.77558C16.7073 2.86576 16.6339 2.93885 16.5435 2.93885H16.8711C16.9615 2.93885 17.0349 2.86576 17.0349 2.77558C17.0349 2.6854 16.9615 2.6123 16.8711 2.6123Z" fill="#4353FF"/>
<path d="M15.0693 2.1225C15.0693 2.03232 14.9959 1.95923 14.9055 1.95923H14.5779C14.4874 1.95923 14.4141 2.03232 14.4141 2.1225C14.4141 2.21268 14.4874 2.28577 14.5779 2.28577H14.9055C14.9959 2.28577 15.0693 2.21268 15.0693 2.1225Z" fill="#4353FF"/>
<path d="M15.7245 3.42865C15.7245 3.33847 15.6512 3.26538 15.5607 3.26538H15.2331C15.1427 3.26538 15.0693 3.33847 15.0693 3.42865C15.0693 3.51883 15.1427 3.59193 15.2331 3.59193H15.5607C15.6512 3.59193 15.7245 3.5188 15.7245 3.42865Z" fill="#4353FF"/>
<path d="M14.5778 4.24487H14.2502C14.1598 4.24487 14.0864 4.31796 14.0864 4.40815C14.0864 4.49833 14.1598 4.57142 14.2502 4.57142H14.5778C14.6683 4.57142 14.7416 4.49833 14.7416 4.40815C14.7416 4.31796 14.6683 4.24487 14.5778 4.24487Z" fill="#4353FF"/>
<path d="M16.8706 4.89795H15.2326C15.1422 4.89795 15.0688 4.97104 15.0688 5.06122C15.0688 5.1514 15.1422 5.22449 15.2326 5.22449H16.8706C16.9611 5.22449 17.0344 5.1514 17.0344 5.06122C17.0344 4.97104 16.961 4.89795 16.8706 4.89795Z" fill="#4353FF"/>
<path d="M14.5778 4.89795H14.2502C14.1598 4.89795 14.0864 4.97104 14.0864 5.06122C14.0864 5.1514 14.1598 5.22449 14.2502 5.22449H14.5778C14.6683 5.22449 14.7416 5.1514 14.7416 5.06122C14.7416 4.97104 14.6683 4.89795 14.5778 4.89795Z" fill="#4353FF"/>
<path d="M16.8706 5.55103H15.2326C15.1422 5.55103 15.0688 5.62412 15.0688 5.7143C15.0688 5.80448 15.1422 5.87757 15.2326 5.87757H16.8706C16.9611 5.87757 17.0344 5.80448 17.0344 5.7143C17.0344 5.62412 16.961 5.55103 16.8706 5.55103Z" fill="#4353FF"/>
<path d="M14.5778 5.55103H14.2502C14.1598 5.55103 14.0864 5.62412 14.0864 5.7143C14.0864 5.80448 14.1598 5.87757 14.2502 5.87757H14.5778C14.6683 5.87757 14.7416 5.80448 14.7416 5.7143C14.7416 5.62412 14.6683 5.55103 14.5778 5.55103Z" fill="#4353FF"/>
<path d="M14.2502 7.51014C14.3407 7.51014 14.414 7.43705 14.414 7.34687C14.414 7.25669 14.3407 7.18359 14.2502 7.18359C14.1598 7.18359 14.0864 7.25669 14.0864 7.34687C14.0864 7.43701 14.1598 7.51014 14.2502 7.51014Z" fill="#4353FF"/>
<path d="M14.2502 6.85706C14.3407 6.85706 14.414 6.78397 14.414 6.69379C14.414 6.60361 14.3407 6.53052 14.2502 6.53052C14.1598 6.53052 14.0864 6.60361 14.0864 6.69379C14.0864 6.78397 14.1598 6.85706 14.2502 6.85706Z" fill="#4353FF"/>
<path d="M14.2502 8.81629C14.3407 8.81629 14.414 8.7432 14.414 8.65302C14.414 8.56284 14.3407 8.48975 14.2502 8.48975C14.1598 8.48975 14.0864 8.56284 14.0864 8.65302C14.0864 8.7432 14.1598 8.81629 14.2502 8.81629Z" fill="#4353FF"/>
<path d="M14.2502 8.16321C14.3407 8.16321 14.414 8.09012 14.414 7.99994C14.414 7.90976 14.3407 7.83667 14.2502 7.83667C14.1598 7.83667 14.0864 7.90976 14.0864 7.99994C14.0864 8.09012 14.1598 8.16321 14.2502 8.16321Z" fill="#4353FF"/>
<path d="M14.905 7.51014C14.9955 7.51014 15.0688 7.43705 15.0688 7.34687C15.0688 7.25669 14.9955 7.18359 14.905 7.18359C14.8145 7.18359 14.7412 7.25669 14.7412 7.34687C14.7412 7.43701 14.8146 7.51014 14.905 7.51014Z" fill="#4353FF"/>
<path d="M14.905 6.85706C14.9955 6.85706 15.0688 6.78397 15.0688 6.69379C15.0688 6.60361 14.9955 6.53052 14.905 6.53052C14.8145 6.53052 14.7412 6.60361 14.7412 6.69379C14.7412 6.78397 14.8146 6.85706 14.905 6.85706Z" fill="#4353FF"/>
<path d="M14.905 8.81629C14.9955 8.81629 15.0688 8.7432 15.0688 8.65302C15.0688 8.56284 14.9955 8.48975 14.905 8.48975C14.8145 8.48975 14.7412 8.56284 14.7412 8.65302C14.7412 8.7432 14.8146 8.81629 14.905 8.81629Z" fill="#4353FF"/>
<path d="M14.905 8.16321C14.9955 8.16321 15.0688 8.09012 15.0688 7.99994C15.0688 7.90976 14.9955 7.83667 14.905 7.83667C14.8145 7.83667 14.7412 7.90976 14.7412 7.99994C14.7412 8.09012 14.8146 8.16321 14.905 8.16321Z" fill="#4353FF"/>
<path d="M15.5603 7.51014H16.8706C16.9611 7.51014 17.0344 7.43705 17.0344 7.34687C17.0344 7.25669 16.9611 7.18359 16.8706 7.18359H15.5603C15.4698 7.18359 15.3965 7.25669 15.3965 7.34687C15.3965 7.43701 15.4698 7.51014 15.5603 7.51014Z" fill="#4353FF"/>
<path d="M15.5603 6.85706H16.8706C16.9611 6.85706 17.0344 6.78397 17.0344 6.69379C17.0344 6.60361 16.9611 6.53052 16.8706 6.53052H15.5603C15.4698 6.53052 15.3965 6.60361 15.3965 6.69379C15.3965 6.78397 15.4698 6.85706 15.5603 6.85706Z" fill="#4353FF"/>
<path d="M15.5603 8.81629H16.8706C16.9611 8.81629 17.0344 8.7432 17.0344 8.65302C17.0344 8.56284 16.9611 8.48975 16.8706 8.48975H15.5603C15.4698 8.48975 15.3965 8.56284 15.3965 8.65302C15.3965 8.7432 15.4698 8.81629 15.5603 8.81629Z" fill="#4353FF"/>
<path d="M15.5603 8.16321H16.8706C16.9611 8.16321 17.0344 8.09012 17.0344 7.99994C17.0344 7.90976 16.9611 7.83667 16.8706 7.83667H15.5603C15.4698 7.83667 15.3965 7.90976 15.3965 7.99994C15.3965 8.09012 15.4698 8.16321 15.5603 8.16321Z" fill="#4353FF"/>
<path d="M16.707 2.77558C16.707 2.6854 16.6336 2.6123 16.5432 2.6123H16.2156C16.1251 2.6123 16.0518 2.6854 16.0518 2.77558C16.0518 2.86576 16.1251 2.93885 16.2156 2.93885H16.5432C16.6336 2.93881 16.707 2.86572 16.707 2.77558Z" fill="#4353FF"/>
<path d="M4.91399 5.87747H7.37089V5.22442H5.24155V2.28566H8.18982V4.40809C8.28037 4.40809 8.35362 4.48111 8.35362 4.57136C8.35362 4.66162 8.28037 4.73463 8.18982 4.73463V5.22442H7.69846V5.87747H8.51742C8.5221 5.87747 8.52663 5.87699 8.53126 5.87677L8.53386 5.68053C8.53535 5.56801 8.66898 5.50957 8.75307 5.58462L8.82881 5.65224C8.83923 5.62032 8.84506 5.58632 8.84506 5.55092V4.7346C8.75451 4.7346 8.68126 4.66158 8.68126 4.57133C8.68126 4.48107 8.75451 4.40805 8.84506 4.40805V1.95911C8.84506 1.77864 8.69837 1.63257 8.51746 1.63257H4.91403C4.73312 1.63257 4.58643 1.7786 4.58643 1.95911V5.55092C4.58639 5.73143 4.73308 5.87747 4.91399 5.87747Z" fill="#4353FF"/>
<path d="M7.53441 7.34703C7.62495 7.34703 7.69821 7.27401 7.69821 7.18376V6.5307C7.69821 6.44045 7.62495 6.36743 7.53441 6.36743C7.44386 6.36743 7.37061 6.44045 7.37061 6.5307V7.18376C7.37064 7.27401 7.4439 7.34703 7.53441 7.34703Z" fill="#4353FF"/>
<path d="M11.4656 9.30628H12.1207C12.2113 9.30628 12.2845 9.23326 12.2845 9.14301C12.2845 9.05275 12.2113 8.97974 12.1207 8.97974H11.4656C11.375 8.97974 11.3018 9.05275 11.3018 9.14301C11.3018 9.23326 11.375 9.30628 11.4656 9.30628Z" fill="#4353FF"/>
<path d="M12.1208 7.67358C12.0303 7.67358 11.957 7.7466 11.957 7.83686V8.48991C11.957 8.58016 12.0303 8.65318 12.1208 8.65318C12.2114 8.65318 12.2846 8.58016 12.2846 8.48991V7.83686C12.2846 7.7466 12.2113 7.67358 12.1208 7.67358Z" fill="#4353FF"/>
<path d="M11.4656 4.73475H12.1207C12.2113 4.73475 12.2845 4.66173 12.2845 4.57148C12.2845 4.48122 12.2113 4.4082 12.1207 4.4082H11.4656C11.375 4.4082 11.3018 4.48122 11.3018 4.57148C11.3018 4.66173 11.375 4.73475 11.4656 4.73475Z" fill="#4353FF"/>
<path d="M12.1208 5.06128C12.0303 5.06128 11.957 5.1343 11.957 5.22455V5.8776C11.957 5.96786 12.0303 6.04088 12.1208 6.04088C12.2114 6.04088 12.2846 5.96786 12.2846 5.8776V5.22455C12.2846 5.1343 12.2113 5.06128 12.1208 5.06128Z" fill="#4353FF"/>
<path d="M9.50012 8.97974H8.84495C8.75441 8.97974 8.68115 9.05275 8.68115 9.14301C8.68115 9.23326 8.75441 9.30628 8.84495 9.30628H9.50012C9.59067 9.30628 9.66392 9.23326 9.66392 9.14301C9.66392 9.05275 9.59067 8.97974 9.50012 8.97974Z" fill="#4353FF"/>
<path d="M7.53441 5.06128C7.44386 5.06128 7.37061 5.1343 7.37061 5.22455V5.8776C7.37061 5.96786 7.44386 6.04088 7.53441 6.04088C7.62495 6.04088 7.69821 5.96786 7.69821 5.8776V5.22455C7.69821 5.1343 7.62495 5.06128 7.53441 5.06128Z" fill="#4353FF"/>
<path d="M8.18957 8.97974H7.53441C7.44386 8.97974 7.37061 9.05275 7.37061 9.14301C7.37061 9.23326 7.44386 9.30628 7.53441 9.30628H8.18957C8.28012 9.30628 8.35337 9.23326 8.35337 9.14301C8.35337 9.05275 8.28008 8.97974 8.18957 8.97974Z" fill="#4353FF"/>
<path d="M7.37061 8.48991C7.37061 8.58016 7.44386 8.65318 7.53441 8.65318C7.62495 8.65318 7.69821 8.58016 7.69821 8.48991V7.83686C7.69821 7.7466 7.62495 7.67358 7.53441 7.67358C7.44386 7.67358 7.37061 7.7466 7.37061 7.83686V8.48991Z" fill="#4353FF"/>
<path d="M12.1208 6.36743C12.0303 6.36743 11.957 6.44045 11.957 6.5307V7.18376C11.957 7.27401 12.0303 7.34703 12.1208 7.34703C12.2114 7.34703 12.2846 7.27401 12.2846 7.18376V6.5307C12.2846 6.44045 12.2113 6.36743 12.1208 6.36743Z" fill="#4353FF"/>
<path d="M10.155 4.73475H10.8102C10.9007 4.73475 10.974 4.66173 10.974 4.57148C10.974 4.48122 10.9007 4.4082 10.8102 4.4082H10.155C10.0645 4.4082 9.99121 4.48122 9.99121 4.57148C9.99121 4.66173 10.0645 4.73475 10.155 4.73475Z" fill="#4353FF"/>
<path d="M7.37158 4.57148C7.37158 4.66173 7.44484 4.73475 7.53538 4.73475H8.19055C8.2811 4.73475 8.35435 4.66173 8.35435 4.57148C8.35435 4.48122 8.2811 4.4082 8.19055 4.4082H7.53538C7.44484 4.40824 7.37158 4.48126 7.37158 4.57148Z" fill="#4353FF"/>
<path d="M10.155 9.30628H10.8102C10.9007 9.30628 10.974 9.23326 10.974 9.14301C10.974 9.05275 10.9007 8.97974 10.8102 8.97974H10.155C10.0645 8.97974 9.99121 9.05275 9.99121 9.14301C9.99121 9.23326 10.0645 9.30628 10.155 9.30628Z" fill="#4353FF"/>
<path d="M8.68115 4.57148C8.68115 4.66173 8.75441 4.73475 8.84495 4.73475H9.50012C9.59067 4.73475 9.66392 4.66173 9.66392 4.57148C9.66392 4.48122 9.59067 4.4082 9.50012 4.4082H8.84495C8.75441 4.40824 8.68115 4.48126 8.68115 4.57148Z" fill="#4353FF"/>
<path d="M8.53347 5.68063L8.53087 5.87686L8.5171 6.93233C8.51588 7.02765 8.61385 7.09238 8.70142 7.05402L9.02728 6.91147L9.31826 7.57206C9.34527 7.63328 9.40528 7.66964 9.46844 7.66964C9.49033 7.66964 9.51275 7.6652 9.53416 7.65592C9.61688 7.61956 9.65458 7.52328 9.61832 7.44071L9.32738 6.78019L9.65313 6.63767C9.74067 6.59935 9.75923 6.48368 9.68801 6.42002L8.82837 5.65234L8.75263 5.58472C8.66858 5.50963 8.53491 5.56811 8.53347 5.68063Z" fill="#4353FF"/>
</svg>
