<svg width="20" height="21" viewBox="0 0 20 21" fill="none" xmlns="http://www.w3.org/2000/svg">
<path d="M2.82683 4.37486C3.05716 4.55212 3.38619 4.5075 3.56199 4.2753C5.10908 2.23067 7.45554 1.05813 9.99982 1.05813C12.5441 1.05813 14.8906 2.23074 16.4376 4.2753C16.5409 4.4117 16.697 4.48332 16.855 4.48332C16.9659 4.48332 17.0778 4.44797 17.1728 4.37486C17.403 4.19753 17.4472 3.86556 17.2715 3.63328C15.5242 1.32427 12.8738 0 9.99982 0C7.12581 0 4.47541 1.32427 2.7282 3.63328C2.55247 3.86556 2.59663 4.19753 2.82683 4.37486Z" fill="black"/>
<path d="M15.5752 7.19703C15.5752 8.10809 16.3101 8.84938 17.2133 8.84938C18.1165 8.84938 18.8513 8.10809 18.8513 7.19703C18.8513 6.28597 18.1165 5.54468 17.2133 5.54468C16.3101 5.54468 15.5752 6.2859 15.5752 7.19703Z" fill="black"/>
<path d="M18.8898 9.39777C18.8861 9.3965 18.4733 9.26873 18.4733 9.26873C18.3239 9.2227 18.1615 9.25105 18.0364 9.34552L17.2134 9.96711L16.3904 9.34552C16.2652 9.25098 16.1028 9.22263 15.9535 9.26873C15.9535 9.26873 15.5408 9.3965 15.537 9.39777C14.8729 9.62114 14.4268 10.2455 14.4268 10.9516V13.4496C14.4268 13.546 14.4547 13.6403 14.5072 13.7207L15.3377 14.9957V18.3438C15.3377 18.6165 15.5568 18.8375 15.8272 18.8375H18.5997C18.8701 18.8375 19.0892 18.6165 19.0892 18.3438V14.9957L19.9197 13.7207C19.9722 13.6402 20.0002 13.5459 20.0002 13.4496V10.9516C20.0002 10.2455 19.5539 9.62114 18.8898 9.39777Z" fill="black"/>
<path d="M2.78658 8.84938C3.68977 8.84938 4.42465 8.10809 4.42465 7.19703C4.42465 6.28597 3.68977 5.54468 2.78658 5.54468C1.88339 5.54468 1.14844 6.2859 1.14844 7.19703C1.14844 8.10816 1.88332 8.84938 2.78658 8.84938Z" fill="black"/>
<path d="M4.46308 9.39777C4.4593 9.3965 4.04657 9.26873 4.04657 9.26873C3.89706 9.2227 3.73485 9.25105 3.60966 9.34552L2.78667 9.96711L1.96367 9.34552C1.83855 9.25098 1.67607 9.22263 1.52676 9.26873C1.52676 9.26873 1.11404 9.3965 1.11025 9.39777C0.446161 9.62114 1.57763e-08 10.2455 1.57763e-08 10.9516V13.4496C1.57763e-08 13.546 0.0278982 13.6403 0.0804702 13.7207L0.910968 14.9957V18.3438C0.910968 18.6165 1.13009 18.8375 1.40045 18.8375H4.17288C4.44324 18.8375 4.66236 18.6165 4.66236 18.3438V14.9957L5.49286 13.7207C5.54536 13.6402 5.57333 13.5459 5.57333 13.4496V10.9516C5.57333 10.2455 5.1271 9.62114 4.46308 9.39777Z" fill="black"/>
<path d="M12.1129 4.86831C12.1129 3.69316 11.165 2.73706 10 2.73706C8.83505 2.73706 7.88721 3.69316 7.88721 4.86831C7.88721 6.04354 8.83505 6.99957 10 6.99957C11.165 6.99957 12.1129 6.04354 12.1129 4.86831Z" fill="black"/>
<path d="M12.3205 8.03239L12.317 8.03126L11.714 7.8446C11.6188 7.81511 11.5172 7.86588 11.483 7.96056L10.215 11.4701C10.1418 11.6725 9.85796 11.6725 9.78478 11.4701L8.51674 7.96056C8.48912 7.88412 8.41762 7.83618 8.34094 7.83618C8.32278 7.83618 7.68344 8.03098 7.68344 8.03098C6.91308 8.28991 6.39844 9.01027 6.39844 9.82482V13.5374C6.39844 13.5742 6.40916 13.6103 6.42921 13.6411L7.75234 15.6721V20.8111C7.75234 20.9154 7.83618 21 7.93964 21H12.0601C12.1636 21 12.2474 20.9154 12.2474 20.8111V15.6721L13.5705 13.6411C13.5906 13.6103 13.6013 13.5742 13.6013 13.5374V9.81506C13.6012 9.00405 13.0845 8.28489 12.3205 8.03239Z" fill="black"/>
<path d="M10.4952 7.95862C10.4428 7.90106 10.3662 7.87207 10.2887 7.87207H9.71077C9.63331 7.87207 9.5567 7.90106 9.50426 7.95862C9.42316 8.04778 9.41139 8.17653 9.46894 8.27715L9.77785 8.74693L9.63324 9.97759L9.91804 10.7418C9.9458 10.8186 10.0535 10.8186 10.0814 10.7418L10.3662 9.97759L10.2216 8.74693L10.5305 8.27715C10.5881 8.17653 10.5763 8.04778 10.4952 7.95862Z" fill="black"/>
</svg>
