<svg width="18" height="16" viewBox="0 0 18 16" fill="none" xmlns="http://www.w3.org/2000/svg">
<path d="M17.6618 15.6632V14.7564C17.6618 14.564 17.5772 14.3826 17.43 14.2605C16.6134 13.5869 15.7341 13.139 15.5539 13.0502C15.5355 13.0391 15.5208 13.0206 15.5208 12.9984V11.7215C15.679 11.6142 15.7856 11.4328 15.7856 11.2255V9.90054C15.7856 9.24174 15.2559 8.70508 14.5974 8.70508H14.4539H14.3105C13.6557 8.70508 13.1222 9.23804 13.1222 9.90054V11.2181C13.1222 11.4254 13.2289 11.6068 13.3871 11.7141V12.9947C13.3871 13.0169 13.3761 13.0391 13.354 13.0465C13.1737 13.1353 12.2945 13.5832 11.4779 14.2568C11.3307 14.3789 11.2461 14.5603 11.2461 14.7527V15.6595" fill="black"/>
<path d="M6.73552 15.6632V14.7564C6.73552 14.564 6.65091 14.3826 6.50376 14.2605C5.68708 13.5869 4.80787 13.139 4.62761 13.0502C4.60922 13.0391 4.5945 13.0206 4.5945 12.9984V11.7215C4.75269 11.6142 4.85937 11.4328 4.85937 11.2255V9.90054C4.85937 9.24174 4.32963 8.70508 3.67114 8.70508H3.52767H3.3842C2.72939 8.70508 2.19597 9.23804 2.19597 9.90054V11.2181C2.19597 11.4254 2.30266 11.6068 2.46084 11.7141V12.9947C2.46084 13.0169 2.44981 13.0391 2.42773 13.0465C2.24748 13.1353 1.36826 13.5832 0.551584 14.2568C0.404435 14.3789 0.319824 14.5603 0.319824 14.7527V15.6595" fill="black"/>
<path d="M9.02387 7.65405C8.83994 7.65405 8.68911 7.8058 8.68911 7.99086V10.1153L6.86078 11.1775C6.7026 11.2701 6.64742 11.4736 6.73939 11.6365C6.80192 11.7438 6.91229 11.803 7.03001 11.803C7.08519 11.803 7.14405 11.7882 7.19555 11.7586L9.02387 10.6964L10.8522 11.7586C10.9037 11.7882 10.9626 11.803 11.0177 11.803C11.1318 11.803 11.2458 11.7438 11.3084 11.6365C11.4003 11.4773 11.3451 11.2701 11.187 11.1775L9.35864 10.1153V7.99086C9.35496 7.8058 9.20781 7.65405 9.02387 7.65405Z" fill="black"/>
<path d="M7.59658 4.45987C7.25814 4.63752 6.51136 5.05575 5.80872 5.63312C5.58432 5.81818 5.45557 6.09577 5.45557 6.38816V7.29493C5.45557 7.47999 5.60639 7.63174 5.79033 7.63174C5.97427 7.63174 6.12509 7.47999 6.12509 7.29493V6.38816C6.12509 6.29563 6.16556 6.2105 6.23546 6.15128C7.02638 5.49988 7.88352 5.06315 8.04539 4.98173C8.1815 4.91511 8.26611 4.77816 8.26611 4.62642V3.34953C8.26611 3.23849 8.21093 3.13116 8.11896 3.07194C8.04539 3.02383 8.00124 2.9424 8.00124 2.85357V1.52857C8.00124 1.05482 8.38383 0.669905 8.85471 0.669905H9.13797C9.60885 0.669905 9.99143 1.05482 9.99143 1.52857V2.85357C9.99143 2.9424 9.94729 3.02383 9.87371 3.07194C9.78175 3.13486 9.72657 3.23849 9.72657 3.34953V4.63012C9.72657 4.78186 9.81118 4.91881 9.94729 4.98543C10.1128 5.06685 10.9663 5.49988 11.7572 6.15498C11.8271 6.2142 11.8676 6.29933 11.8676 6.39186V7.29864C11.8676 7.48369 12.0184 7.63544 12.2023 7.63544C12.3863 7.63544 12.5371 7.48369 12.5371 7.29864V6.39186C12.5371 6.09947 12.4084 5.82188 12.184 5.63683C11.485 5.05945 10.7345 4.63752 10.3961 4.46357V3.50867C10.5653 3.33472 10.661 3.10155 10.661 2.85728V1.52857C10.661 0.68471 9.9804 0 9.14165 0H8.85839C8.01964 0 7.33907 0.68471 7.33907 1.52857V2.85357C7.33907 3.10155 7.43472 3.33472 7.60394 3.50497V4.45987H7.59658Z" fill="black"/>
<path d="M3.39178 9.03437H3.67505C4.14592 9.03437 4.52851 9.41929 4.52851 9.89303V11.218C4.52851 11.3069 4.48437 11.3883 4.41079 11.4364C4.31882 11.4993 4.26364 11.603 4.26364 11.714V12.9946C4.26364 13.1463 4.34825 13.2833 4.48437 13.3499C4.64991 13.4313 5.50337 13.8643 6.2943 14.5194C6.36419 14.5787 6.40466 14.6638 6.40466 14.7563V15.6631C6.40466 15.8482 6.55549 15.9999 6.73942 15.9999C6.92336 15.9999 7.07419 15.8482 7.07419 15.6631V14.7563C7.07419 14.4639 6.94543 14.1863 6.72103 14.0013C6.02207 13.4239 5.27161 13.002 4.93317 12.828V11.8731C5.10239 11.6992 5.19804 11.466 5.19804 11.2217V9.89673C5.19804 9.05287 4.51747 8.36816 3.67873 8.36816H3.39546C2.55671 8.36816 1.87615 9.05287 1.87615 9.89673V11.218C1.87615 11.466 1.9718 11.6992 2.14102 11.8694V12.8243C1.80258 13.002 1.05579 13.4202 0.353158 13.9976C0.128755 14.1826 0 14.4602 0 14.7526V15.6594C0 15.8445 0.150828 15.9962 0.334764 15.9962C0.5187 15.9962 0.669528 15.8445 0.669528 15.6594V14.7526C0.669528 14.6601 0.709994 14.575 0.77989 14.5157C1.57082 13.8643 2.42796 13.4276 2.58982 13.3462C2.72594 13.2796 2.81055 13.1426 2.81055 12.9909V11.714C2.81055 11.603 2.75537 11.4956 2.6634 11.4364C2.58982 11.3883 2.54568 11.3069 2.54568 11.218V9.89303C2.53832 9.41929 2.92091 9.03437 3.39178 9.03437Z" fill="black"/>
<path d="M11.2716 13.9976C11.0472 14.1826 10.9185 14.4602 10.9185 14.7526V15.6594C10.9185 15.8445 11.0693 15.9962 11.2532 15.9962C11.4372 15.9962 11.588 15.8445 11.588 15.6594V14.7526C11.588 14.6601 11.6285 14.575 11.6983 14.5157C12.4893 13.8643 13.3464 13.4276 13.5083 13.3462C13.6444 13.2796 13.729 13.1426 13.729 12.9909V11.714C13.729 11.603 13.6738 11.4956 13.5819 11.4364C13.5083 11.3883 13.4641 11.3069 13.4641 11.218V9.89303C13.4641 9.41929 13.8467 9.03437 14.3176 9.03437H14.6009C15.0717 9.03437 15.4543 9.41929 15.4543 9.89303V11.218C15.4543 11.3069 15.4102 11.3883 15.3366 11.4364C15.2446 11.4993 15.1895 11.603 15.1895 11.714V12.9946C15.1895 13.1463 15.2741 13.2833 15.4102 13.3499C15.5757 13.4313 16.4292 13.8643 17.2201 14.5194C17.29 14.5787 17.3305 14.6638 17.3305 14.7563V15.6631C17.3305 15.8482 17.4813 15.9999 17.6652 15.9999C17.8492 15.9999 18 15.8482 18 15.6631V14.7563C18 14.4639 17.8712 14.1863 17.6468 14.0013C16.9479 13.4239 16.1974 13.002 15.859 12.828V11.8731C16.0282 11.6992 16.1239 11.466 16.1239 11.2217V9.89673C16.1239 9.05287 15.4433 8.36816 14.6045 8.36816H14.3213C13.4825 8.36816 12.802 9.05287 12.802 9.89673V11.218C12.802 11.466 12.8976 11.6992 13.0668 11.8694V12.8243C12.721 13.002 11.9743 13.4202 11.2716 13.9976Z" fill="black"/>
</svg>
