<svg width="19" height="19" viewBox="0 0 19 19" fill="none" xmlns="http://www.w3.org/2000/svg">
<path d="M6.74727 1.10972e-09H11.9963V5.27647H6.74727V1.10972e-09ZM6.74727 6.78522H11.9963V12.0617H6.74727V6.78522ZM0 6.78522H5.24696V12.0617H0V6.78522ZM0 1.10972e-09H5.24696V5.27647H0V1.10972e-09ZM0.00205709 13.7221H5.24696V19H0.00205709V13.7221ZM6.74932 13.7221H11.9963V19H6.74932V13.7221ZM13.751 1.10972e-09H19V5.27647H13.751V1.10972e-09ZM13.751 6.78522H19V12.0617H13.751V6.78522ZM13.751 13.7221H19V19H13.751V13.7221Z" fill="#030104"/>
</svg>
