<svg width="20" height="20" viewBox="0 0 20 20" fill="none" xmlns="http://www.w3.org/2000/svg">
<path d="M0.172987 18.98L5.03437 14.1197C3.73032 12.6208 2.94078 10.6652 2.94078 8.52772C2.94078 3.82262 6.76868 0 11.4704 0C16.1765 0 20 3.82705 20 8.52772C20 13.2284 16.1721 17.0554 11.4704 17.0554C9.33245 17.0554 7.37636 16.2661 5.87713 14.9623L1.01575 19.8226C0.900421 19.9379 0.745176 20 0.594366 20C0.443558 20 0.288313 19.9424 0.172987 19.8226C-0.057663 19.592 -0.057663 19.2106 0.172987 18.98ZM18.8068 8.52772C18.8068 4.48337 15.5156 1.19734 11.4748 1.19734C7.42959 1.19734 4.14283 4.4878 4.14283 8.52772C4.14283 12.5676 7.42959 15.8625 11.4748 15.8625C15.5156 15.8625 18.8068 12.5721 18.8068 8.52772Z" fill="black" fill-opacity="0.4"/>
</svg>
