<svg width="21" height="21" viewBox="0 0 21 21" fill="none" xmlns="http://www.w3.org/2000/svg">
<path d="M10.5 21C16.299 21 21 16.299 21 10.5C21 4.70101 16.299 0 10.5 0C4.70101 0 0 4.70101 0 10.5C0 16.299 4.70101 21 10.5 21Z" fill="black"/>
<path d="M10.8847 3.61719C7.29647 3.61719 4.38623 6.52742 4.38623 10.1156C4.38623 11.24 4.67147 12.2983 5.1758 13.2201L4.38623 16.614L7.78013 15.8245C8.70198 16.3288 9.76025 16.614 10.8847 16.614C14.4728 16.614 17.3831 13.7038 17.3831 10.1156C17.3831 6.52742 14.4728 3.61719 10.8847 3.61719Z" fill="white"/>
<path d="M11.2274 11.5871H10.0161V10.934C10.0161 10.6487 10.0492 10.4338 10.1195 10.2974C10.1856 10.1568 10.3344 9.97492 10.5659 9.74755L11.3472 8.96625C11.5126 8.7885 11.5953 8.56527 11.5953 8.3007C11.5953 8.03614 11.5085 7.81704 11.339 7.64342C11.1654 7.4698 10.9463 7.37885 10.6734 7.37885C10.4006 7.37885 10.1774 7.46153 9.99134 7.63102C9.80945 7.80051 9.70197 8.02374 9.67303 8.3007H8.375C8.44528 7.66409 8.69331 7.16803 9.11909 6.80838C9.54488 6.44874 10.074 6.26685 10.7106 6.26685C11.3472 6.26685 11.864 6.44047 12.265 6.78771C12.6659 7.13496 12.8644 7.61862 12.8644 8.2387C12.8644 8.66862 12.7486 9.02413 12.513 9.30937C12.3766 9.47885 12.2732 9.60287 12.203 9.67314C12.1327 9.74342 12.0376 9.83437 11.9177 9.94598C11.7978 10.0576 11.6986 10.1527 11.6159 10.2353C11.5333 10.318 11.4671 10.3883 11.4175 10.4462C11.2894 10.6033 11.2232 10.8265 11.2232 11.1117V11.5871H11.2274ZM10.6445 13.9682C10.4213 13.9682 10.227 13.8897 10.0616 13.7367C9.89626 13.5838 9.81358 13.3978 9.81358 13.1787C9.81358 12.9596 9.89213 12.7735 10.0533 12.6165C10.2146 12.4594 10.4089 12.3808 10.6321 12.3808C10.8553 12.3808 11.0496 12.4594 11.215 12.6123C11.3803 12.7653 11.4589 12.9513 11.4589 13.1704C11.4589 13.3895 11.3803 13.5755 11.2191 13.7326C11.062 13.8897 10.8677 13.9682 10.6445 13.9682Z" fill="black"/>
</svg>
