<svg width="13" height="19" viewBox="0 0 13 19" fill="none" xmlns="http://www.w3.org/2000/svg">
<path d="M11.262 9.46171C11.6611 6.06515 10.115 2.60267 6.87136 0.113413C6.67431 -0.0378042 6.32569 -0.0378042 6.12864 0.113413C2.88496 2.60267 1.3389 6.06127 1.73805 9.46171C0.616401 10.3884 7.70945e-08 11.5826 7.70945e-08 12.8544C7.70945e-08 14.1378 0.636611 15.3592 1.79363 16.2897C2.07656 16.5185 2.79907 16.4138 2.68286 15.9097C2.62223 15.6461 2.54644 15.3902 2.54644 15.1382C2.54644 14.51 2.79401 13.9129 3.25379 13.4089C3.32958 13.4399 3.41547 13.4593 3.50641 13.4593H9.49359C9.58453 13.4593 9.67042 13.4399 9.74621 13.4089C10.206 13.9129 10.4536 14.51 10.4536 15.1382C10.4536 15.3902 10.3677 15.6422 10.3171 15.9097C10.211 16.4681 10.9689 16.4875 11.2064 16.2897C12.3583 15.3553 13 14.1378 13 12.8544C12.9949 11.5826 12.3836 10.3845 11.262 9.46171ZM6.49747 0.98194C7.43723 1.75741 8.20521 2.62981 8.8014 3.5565H4.1986C4.78974 2.62594 5.55772 1.75741 6.49747 0.98194ZM1.54606 14.5914C1.2227 14.0525 1.05597 13.4631 1.05597 12.8544C1.05597 12.0324 1.36417 11.2453 1.94015 10.5706C1.9452 10.6017 2.49592 12.2185 2.70812 12.6334C2.07656 13.1917 1.67742 13.8664 1.54606 14.5914ZM9.14497 12.6489H3.84998C2.36456 9.97352 2.37971 6.98408 3.72872 4.35911H9.26623C10.6152 6.98408 10.6304 9.97352 9.14497 12.6489ZM10.2919 12.6334C10.5849 12.0557 11.0548 10.5939 11.0599 10.5706C11.6358 11.2414 11.944 12.0285 11.944 12.8544C11.944 13.4631 11.7723 14.0525 11.4539 14.5914C11.3175 13.8664 10.9184 13.1917 10.2919 12.6334Z" fill="white"/>
<path d="M4.37018 14.134C4.07714 14.134 3.84473 14.3163 3.84473 14.5373V16.5651C3.84473 16.79 4.08219 16.9684 4.37018 16.9684C4.65817 16.9684 4.89564 16.7861 4.89564 16.5651V14.5373C4.89564 14.3124 4.65817 14.134 4.37018 14.134Z" fill="white"/>
<path d="M6.49731 14.134C6.35078 14.134 6.21942 14.1806 6.12342 14.2542C6.12342 14.2542 6.12342 14.2542 6.11837 14.2581C6.05774 14.3046 6.01227 14.3667 5.98701 14.4365C5.9769 14.4714 5.9668 14.5063 5.9668 14.545V18.5969C5.9668 18.6279 5.97185 18.6589 5.98195 18.6899C6.03753 18.8683 6.24468 19.0001 6.49225 19.0001C6.73982 19.0001 6.94698 18.8683 7.00255 18.6899C7.01266 18.6589 7.01771 18.6279 7.01771 18.5969V14.5373C7.01771 14.4985 7.01266 14.4636 6.9975 14.4287C6.94192 14.2581 6.73982 14.134 6.49731 14.134Z" fill="white"/>
<path d="M8.62458 14.134C8.33153 14.134 8.09912 14.3163 8.09912 14.5373V16.5651C8.09912 16.79 8.33659 16.9684 8.62458 16.9684C8.91257 16.9684 9.15003 16.7861 9.15003 16.5651V14.5373C9.15509 14.3124 8.91762 14.134 8.62458 14.134Z" fill="white"/>
</svg>
