<svg width="19" height="19" viewBox="0 0 19 19" fill="none" xmlns="http://www.w3.org/2000/svg">
<path d="M18.0219 7.38889H16.2443C15.9586 7.38889 15.7232 7.23161 15.6138 6.96772C15.5044 6.70383 15.5599 6.42587 15.7616 6.22391L17.0184 4.96744C17.2031 4.78272 17.3048 4.53678 17.3048 4.2757C17.3048 4.01428 17.2031 3.76869 17.0184 3.58361L15.4164 1.98163C15.0469 1.61219 14.4027 1.61148 14.0326 1.98163L12.7761 3.23809C12.5741 3.4397 12.2955 3.496 12.0323 3.38622C11.7684 3.2768 11.6111 3.04141 11.6111 2.7557V0.978148C11.6111 0.438759 11.1724 0 10.633 0H8.36704C7.82765 0 7.38889 0.438759 7.38889 0.978148V2.7557C7.38889 3.04141 7.23161 3.2768 6.96772 3.38622C6.70454 3.49635 6.42587 3.4397 6.22391 3.23809L4.96744 1.98163C4.5973 1.61148 3.95306 1.61219 3.58361 1.98163L1.98163 3.58361C1.79691 3.76833 1.69522 4.01428 1.69522 4.2757C1.69522 4.53678 1.79691 4.78237 1.98163 4.96744L3.23844 6.22391C3.44006 6.42587 3.4953 6.70383 3.38622 6.96772C3.27715 7.23161 3.04141 7.38889 2.7557 7.38889H0.978148C0.438759 7.38889 0 7.82765 0 8.36704V10.6326C0 11.1724 0.438759 11.6111 0.978148 11.6111H2.7557C3.04141 11.6111 3.2768 11.7684 3.38622 12.0323C3.49565 12.2962 3.44006 12.5741 3.23844 12.7761L1.98163 14.0326C1.79691 14.2173 1.69522 14.4632 1.69522 14.7243C1.69522 14.9857 1.79691 15.2313 1.98163 15.4164L3.58361 17.0184C3.95341 17.3882 4.5973 17.3889 4.96744 17.0184L6.22391 15.7616C6.42587 15.5599 6.70348 15.5044 6.96772 15.6138C7.23161 15.7232 7.38889 15.9586 7.38889 16.2443V18.0219C7.38889 18.5612 7.82765 19 8.36704 19H10.6326C11.172 19 11.6108 18.5612 11.6108 18.0219V16.2443C11.6108 15.9586 11.768 15.7232 12.0319 15.6138C12.2962 15.504 12.5738 15.5599 12.7757 15.7616L14.0322 17.0184C14.4024 17.3885 15.0466 17.3878 15.416 17.0184L17.018 15.4164C17.2027 15.2317 17.3044 14.9857 17.3044 14.7243C17.3044 14.4632 17.2027 14.2176 17.018 14.0326L15.7612 12.7761C15.5596 12.5741 15.5044 12.2962 15.6134 12.0323C15.7225 11.7684 15.9586 11.6111 16.2443 11.6111H18.0219C18.5612 11.6111 19 11.1724 19 10.633V8.36704C19 7.82765 18.5612 7.38889 18.0219 7.38889ZM18.2963 10.633C18.2963 10.7843 18.1731 10.9074 18.0219 10.9074H16.2443C15.6729 10.9074 15.1821 11.2353 14.9636 11.7631C14.7447 12.2909 14.8598 12.87 15.264 13.274L16.5209 14.5304C16.6282 14.6377 16.6282 14.8119 16.5209 14.9189L14.9189 16.5209C14.8119 16.6278 14.6377 16.6285 14.5304 16.5209L13.274 15.264C12.8697 14.8598 12.2909 14.7454 11.7631 14.9636C11.2353 15.1821 10.9074 15.6729 10.9074 16.2443V18.0219C10.9074 18.1731 10.7843 18.2963 10.633 18.2963H8.36704C8.21574 18.2963 8.09259 18.1731 8.09259 18.0219V16.2443C8.09259 15.6729 7.76467 15.1821 7.23689 14.9636C7.05991 14.89 6.87765 14.8541 6.6975 14.8541C6.34072 14.8541 5.99485 14.9949 5.72604 15.2637L4.46957 16.5205C4.36191 16.6282 4.18774 16.6275 4.08113 16.5205L2.47915 14.9185C2.37183 14.8112 2.37183 14.637 2.47915 14.5301L3.73596 13.2736C4.13989 12.8697 4.2553 12.2905 4.03644 11.7628C3.81794 11.2353 3.32711 10.9074 2.7557 10.9074H0.978148C0.826852 10.9074 0.703704 10.7843 0.703704 10.633V8.36704C0.703704 8.21574 0.826852 8.09259 0.978148 8.09259H2.7557C3.32711 8.09259 3.81794 7.76467 4.03644 7.23689C4.2553 6.70911 4.14024 6.12996 3.73596 5.72604L2.47915 4.46957C2.37183 4.36226 2.37183 4.18809 2.47915 4.08113L4.08113 2.47915C4.18809 2.37183 4.36226 2.37183 4.46957 2.47915L5.72604 3.73561C6.12961 4.13918 6.70841 4.25494 7.23689 4.03609C7.76467 3.81794 8.09259 3.32711 8.09259 2.7557V0.978148C8.09259 0.826852 8.21574 0.703704 8.36704 0.703704H10.6326C10.7843 0.703704 10.9074 0.826852 10.9074 0.978148V2.7557C10.9074 3.32711 11.2353 3.81794 11.7631 4.03644C12.2916 4.2553 12.87 4.13989 13.274 3.73596L14.5304 2.4795C14.6381 2.37219 14.8123 2.37219 14.9189 2.4795L16.5209 4.08148C16.6282 4.1888 16.6282 4.36296 16.5209 4.46993L15.264 5.72639C14.8601 6.13031 14.7447 6.70946 14.9636 7.23724C15.1821 7.76502 15.6729 8.09294 16.2443 8.09294H18.0219C18.1731 8.09259 18.2963 8.21574 18.2963 8.36704V10.633Z" fill="white"/>
<path d="M9.50016 6.33325C7.75392 6.33325 6.3335 7.75368 6.3335 9.49992C6.3335 11.2462 7.75392 12.6666 9.50016 12.6666C11.2464 12.6666 12.6668 11.2462 12.6668 9.49992C12.6668 7.75368 11.2464 6.33325 9.50016 6.33325ZM9.50016 11.9629C8.14237 11.9629 7.0372 10.8577 7.0372 9.49992C7.0372 8.14212 8.14237 7.03696 9.50016 7.03696C10.858 7.03696 11.9631 8.14212 11.9631 9.49992C11.9631 10.8577 10.858 11.9629 9.50016 11.9629Z" fill="white"/>
</svg>
