<svg width="20" height="21" viewBox="0 0 20 21" fill="none" xmlns="http://www.w3.org/2000/svg">
<path d="M18.4105 1.79268C17.6992 1.05822 16.8423 0.690918 15.8404 0.690918H3.71516C2.71325 0.690918 1.85634 1.05822 1.14481 1.79268C0.433404 2.52727 0.0776367 3.4119 0.0776367 4.44634V16.9644C0.0776367 17.9988 0.433404 18.8835 1.14481 19.6181C1.85634 20.3527 2.71325 20.72 3.71516 20.72H15.8403C16.8422 20.72 17.6991 20.3527 18.4103 19.6181C19.1219 18.8835 19.4776 17.9988 19.4776 16.9644V4.44634C19.4776 3.4119 19.1218 2.52714 18.4105 1.79268ZM17.217 8.78843L12.7713 13.3786C12.6111 13.5437 12.4219 13.6262 12.2029 13.6265C12.1021 13.6265 12.0007 13.6046 11.8998 13.5612C11.5628 13.4133 11.3945 13.157 11.3945 12.7919V10.7055C10.2157 10.7055 9.27248 10.8075 8.56528 11.0119C7.85803 11.2162 7.31075 11.5443 6.92336 11.9963C6.03075 13.031 5.7697 15.0866 6.1402 18.1642C6.1655 18.3727 6.08547 18.5162 5.90016 18.5943C5.84968 18.6206 5.79496 18.6334 5.73608 18.6334C5.60964 18.6334 5.50444 18.5811 5.42026 18.4768C4.01413 16.5383 3.311 14.7821 3.311 13.2088C3.311 12.6871 3.33219 12.2069 3.37422 11.7677C3.41624 11.3291 3.50676 10.844 3.64567 10.314C3.78457 9.78363 3.97184 9.30987 4.20763 8.89256C4.44342 8.47548 4.76557 8.0605 5.17398 7.64739C5.58226 7.23428 6.06229 6.89096 6.61377 6.61716C7.16521 6.3433 7.84936 6.12179 8.66618 5.95212C9.48287 5.78267 10.3923 5.69781 11.3945 5.69781V3.61158C11.3945 3.24639 11.5628 2.98998 11.8995 2.84214C12.2281 2.69462 12.5184 2.75522 12.7712 3.02469L17.217 7.61478C17.3772 7.77998 17.4571 7.97564 17.4571 8.20167C17.4571 8.42771 17.3772 8.62332 17.217 8.78843Z" fill="black"/>
</svg>
