<svg width="19" height="19" viewBox="0 0 19 19" fill="none" xmlns="http://www.w3.org/2000/svg">
<path d="M19 6.22513C19 6.13176 18.9806 6.04283 18.9379 5.96279L16.1116 0.271238C16.03 0.106717 15.8747 -3.39243e-08 15.7078 -3.39243e-08H3.28831C3.12137 -3.39243e-08 2.96608 0.10227 2.88455 0.271238L0.0621169 5.96279C0.0232938 6.04283 0 6.13176 0 6.22513C0 7.50129 0.671639 8.59513 1.63057 9.0798V18.4664C1.63057 18.7599 1.84021 19 2.09644 19H4.67041C4.6743 19 4.67818 19 4.68206 19H8.2926C8.29649 19 8.30037 19 8.30425 19H16.8997C17.1559 19 17.3655 18.7599 17.3655 18.4664V9.1465C17.3655 9.12427 17.3656 9.10648 17.3617 9.0887C18.3245 8.60403 19 7.50573 19 6.22513ZM3.56007 1.07161H15.436L17.6451 5.52258H1.35492L3.56007 1.07161ZM13.5221 6.5853C13.3745 7.54575 12.6408 8.27498 11.7595 8.27498C10.8782 8.27498 10.1445 7.54575 9.99693 6.5853H13.5221ZM9.00695 6.5853C8.85942 7.54575 8.12566 8.27498 7.24438 8.27498C6.3631 8.27498 5.62934 7.54575 5.47793 6.5853H9.00695ZM0.962812 6.5853H4.49183C4.3443 7.54575 3.60666 8.27498 2.72538 8.27498C1.84409 8.27943 1.11034 7.54575 0.962812 6.5853ZM16.2746 8.27943C15.3933 8.27943 14.6596 7.5502 14.5121 6.58975H18.0411C17.8897 7.54575 17.1559 8.27943 16.2746 8.27943Z" fill="white"/>
</svg>
