<svg width="19" height="19" viewBox="0 0 19 19" fill="none" xmlns="http://www.w3.org/2000/svg">
<path d="M9.50005 4.74121C6.87598 4.74121 4.74121 6.8764 4.74121 9.50047C4.74121 12.1245 6.87598 14.2597 9.50005 14.2597C12.1237 14.2597 14.2589 12.125 14.2589 9.50047C14.2589 6.87598 12.1237 4.74121 9.50005 4.74121Z" fill="black"/>
<path d="M9.49983 3.34225C8.98697 3.34225 8.57129 2.92657 8.57129 2.41413V0.928543C8.57129 0.415678 8.98697 0 9.49983 0C10.0127 0 10.4284 0.415678 10.4284 0.928543V2.41413C10.4284 2.92657 10.0123 3.34225 9.49983 3.34225Z" fill="black"/>
<path d="M9.49983 15.6572C8.98697 15.6572 8.57129 16.0729 8.57129 16.5858V18.0709C8.57129 18.5842 8.98697 18.9999 9.49983 18.9999C10.0127 18.9999 10.4284 18.5842 10.4284 18.0709V16.5858C10.4284 16.0729 10.0123 15.6572 9.49983 15.6572Z" fill="black"/>
<path d="M13.8537 5.14582C13.4915 4.78316 13.4915 4.1954 13.8537 3.83274L14.9043 2.78218C15.2665 2.41994 15.8547 2.41994 16.2174 2.78218C16.58 3.14485 16.58 3.73302 16.2174 4.09527L15.1668 5.14582C14.8046 5.50849 14.2168 5.50849 13.8537 5.14582Z" fill="black"/>
<path d="M5.14574 13.8546C4.78307 13.4915 4.19532 13.4915 3.83265 13.8546L2.7821 14.9047C2.41985 15.267 2.41943 15.8556 2.7821 16.2178C3.14476 16.5801 3.73294 16.5801 4.09518 16.2178L5.14574 15.1668C5.5084 14.8046 5.5084 14.2164 5.14574 13.8546Z" fill="black"/>
<path d="M15.6572 9.50008C15.6572 8.98721 16.0729 8.57153 16.5858 8.57153H18.0714C18.5842 8.57153 18.9999 8.98721 18.9999 9.50008C18.9999 10.0129 18.5842 10.4282 18.0714 10.4282H16.5858C16.0729 10.4282 15.6572 10.0129 15.6572 9.50008Z" fill="black"/>
<path d="M3.34225 9.50008C3.34225 8.98721 2.92657 8.57153 2.41371 8.57153H0.928543C0.415678 8.57153 0 8.98721 0 9.50008C0 10.0129 0.415678 10.4282 0.928543 10.4282H2.41413C2.92657 10.4282 3.34225 10.0129 3.34225 9.50008Z" fill="black"/>
<path d="M13.8535 13.8544C14.2162 13.4922 14.8044 13.4922 15.1666 13.8544L16.2172 14.905C16.5798 15.2668 16.5798 15.8554 16.2172 16.2177C15.8545 16.5799 15.2668 16.5799 14.9041 16.2177L13.8535 15.1671C13.4909 14.8044 13.4909 14.2167 13.8535 13.8544Z" fill="black"/>
<path d="M5.14589 5.14596C5.50856 4.7833 5.50856 4.19554 5.14589 3.83287L4.09534 2.78274C3.73267 2.42008 3.14492 2.42008 2.78225 2.78274C2.41959 3.14499 2.41959 3.73316 2.78225 4.09541L3.83281 5.14596C4.19547 5.50905 4.78323 5.50905 5.14589 5.14596Z" fill="black"/>
</svg>
