<svg width="102" height="26" viewBox="0 0 102 26" fill="none" xmlns="http://www.w3.org/2000/svg">
<path d="M32.9358 10.1672C32.9358 8.31284 31.1565 6.34333 28.0774 6.34333C24.6198 6.34333 20.8215 8.91392 20.241 14.0423C19.6479 19.2218 22.8279 21.5239 26.0332 21.5239C29.2384 21.5239 30.9167 20.2577 32.6329 18.5696C31.1565 16.6896 29.251 17.5593 28.8851 17.7511C28.4813 17.9557 27.9639 18.2371 26.9039 18.2371C25.6672 18.2371 24.4053 17.6744 24.4053 15.334C32.3301 14.5411 32.9358 12.0216 32.9358 10.1672ZM29.0113 10.4742C28.9608 11.0497 28.7336 12.0344 24.7208 12.5844C25.5662 9.54058 27.1815 9.31038 27.926 9.31038C28.6201 9.31038 29.0617 9.8603 29.0113 10.4742ZM15.5846 10.9729C15.5846 10.9729 13.881 16.3955 13.7422 16.8431C13.6917 16.3827 12.4424 6.65027 12.4424 6.65027C9.54002 6.65027 7.98788 8.74766 7.16764 10.9602C7.16764 10.9602 5.09811 16.3955 4.92144 16.8559C4.90882 16.4338 4.60596 11.0241 4.60596 11.0241C4.4293 8.31284 1.98119 6.66306 -1.92552e-07 6.66306L2.39762 21.4088C5.43882 21.396 7.0793 19.3114 7.9374 17.0989C7.9374 17.0989 9.76717 12.303 9.84288 12.0856C9.8555 12.2902 11.1553 21.4088 11.1553 21.4088C14.2091 21.4088 15.8496 19.452 16.7329 17.3163L21.0108 6.66306C17.9948 6.66306 16.4048 8.74766 15.5846 10.9729ZM44.1415 6.31776C42.2613 6.31776 40.8227 7.35366 39.6113 8.87555V8.86276L40.6965 -1.95144e-07C38.1979 -1.95144e-07 36.1663 2.19971 35.7751 5.47368L33.8822 21.2937C35.3208 21.2937 36.8477 20.8716 37.6679 19.7973C38.3999 20.7565 39.4977 21.5239 41.1256 21.5239C45.3403 21.5239 48.2301 16.5617 48.2301 11.9065C48.2049 7.6606 46.1732 6.31776 44.1415 6.31776ZM43.7503 13.9272C43.3087 16.5234 41.8827 18.2882 40.5072 18.2882C39.1191 18.2882 38.526 17.6616 38.526 17.6616C38.791 15.3851 38.9551 13.9911 39.4599 12.789C39.9646 11.5868 41.1634 9.66847 42.4127 9.66847C43.6368 9.66847 44.192 11.3182 43.7503 13.9272ZM58.7544 6.66306H55.8142L55.8268 6.50959C56.0287 4.56567 56.483 3.54255 57.9847 3.37629C59.0068 3.27398 59.4611 2.73684 59.5747 2.14855C59.663 1.68815 59.9406 0.0895233 59.9406 0.0895233C54.0349 0.0511563 52.1799 2.63453 51.7004 6.57354L51.6877 6.66306H51.6246C50.6656 6.66306 49.6056 7.76291 49.4289 9.15691L49.3658 9.66847H51.3344L49.6813 23.5061L49.1765 25.9872C49.2396 25.9872 49.3154 26 49.3784 26C52.142 25.8977 53.9087 23.6852 54.2999 20.4752L55.587 9.66847H56.5082C57.4168 9.66847 58.4768 8.74766 58.6661 7.21299L58.7544 6.66306ZM74.0488 6.40728C70.6542 6.40728 67.449 8.9395 66.4647 12.9169C65.4804 16.8942 66.9695 21.6006 71.9666 21.6006C76.9511 21.6006 79.8283 16.7024 79.8283 12.6227C79.8283 8.56862 77.1152 6.40728 74.0488 6.40728ZM75.4242 13.7993C75.2476 15.6026 74.4652 18.3394 72.3199 18.3394C70.1621 18.3394 70.4649 15.1422 70.6795 13.6203C70.9066 11.9961 71.8026 9.68126 73.7333 9.68126C75.4621 9.68126 75.6261 11.7659 75.4242 13.7993ZM96.599 10.9729C96.599 10.9729 94.8955 16.3955 94.7567 16.8431C94.7062 16.3827 93.4569 6.65027 93.4569 6.65027C90.5545 6.65027 89.0024 8.74766 88.1821 10.9602C88.1821 10.9602 86.1126 16.3955 85.9359 16.8559C85.9233 16.4338 85.6204 11.0241 85.6204 11.0241C85.4438 8.31284 82.9957 6.66306 81.0145 6.66306L83.3995 21.4088C86.4407 21.396 88.0812 19.3114 88.9393 17.0989C88.9393 17.0989 90.769 12.303 90.8321 12.0856C90.8447 12.2902 92.1445 21.4088 92.1445 21.4088C95.1983 21.4088 96.8388 19.452 97.7221 17.3163L102 6.66306C98.9967 6.66306 97.4067 8.74766 96.599 10.9729ZM61.5306 0.0895233L59.0573 20.3089L58.5525 22.8028C58.6156 22.8028 58.6913 22.8155 58.7544 22.8155C61.417 22.7772 63.3099 20.4112 63.6632 17.4314L65.0892 5.83178C65.5183 2.28923 63.4361 0.0895233 61.5306 0.0895233Z" fill="#4353FF"/>
</svg>
