<svg width="44" height="67" viewBox="0 0 44 67" fill="none" xmlns="http://www.w3.org/2000/svg">
<path d="M32.2941 20.4H11.7059C11.3806 20.4 11.1177 20.6533 11.1177 20.9667C11.1177 21.2801 11.3806 21.5334 11.7059 21.5334H32.2941C32.6194 21.5334 32.8824 21.2801 32.8824 20.9667C32.8824 20.6533 32.6194 20.4 32.2941 20.4Z" fill="black"/>
<path d="M24.6468 17.5667H32.2939C32.6192 17.5667 32.8821 17.3134 32.8821 17C32.8821 16.6866 32.6192 16.4333 32.2939 16.4333H24.6468C24.3215 16.4333 24.0586 16.6866 24.0586 17C24.0586 17.3134 24.3215 17.5667 24.6468 17.5667Z" fill="black"/>
<path d="M24.6468 13.6H32.2939C32.6192 13.6 32.8821 13.3467 32.8821 13.0333C32.8821 12.72 32.6192 12.4667 32.2939 12.4667H24.6468C24.3215 12.4667 24.0586 12.72 24.0586 13.0333C24.0586 13.3467 24.3215 13.6 24.6468 13.6Z" fill="black"/>
<path d="M24.6468 9.63333H32.2939C32.6192 9.63333 32.8821 9.38003 32.8821 9.06667C32.8821 8.7533 32.6192 8.5 32.2939 8.5H24.6468C24.3215 8.5 24.0586 8.7533 24.0586 9.06667C24.0586 9.38003 24.3215 9.63333 24.6468 9.63333Z" fill="black"/>
<path d="M32.2941 27.2H11.7059C11.3806 27.2 11.1177 27.4533 11.1177 27.7666C11.1177 28.08 11.3806 28.3333 11.7059 28.3333H32.2941C32.6194 28.3333 32.8824 28.08 32.8824 27.7666C32.8824 27.4533 32.6194 27.2 32.2941 27.2Z" fill="black"/>
<path d="M11.7059 24.9334H19.9412C20.2665 24.9334 20.5294 24.6801 20.5294 24.3667C20.5294 24.0533 20.2665 23.8 19.9412 23.8H11.7059C11.3806 23.8 11.1177 24.0533 11.1177 24.3667C11.1177 24.6801 11.3806 24.9334 11.7059 24.9334Z" fill="black"/>
<path d="M32.2939 23.8H24.6468C24.3215 23.8 24.0586 24.0533 24.0586 24.3667C24.0586 24.6801 24.3215 24.9334 24.6468 24.9334H32.2939C32.6192 24.9334 32.8821 24.6801 32.8821 24.3667C32.8821 24.0533 32.6192 23.8 32.2939 23.8Z" fill="black"/>
<path d="M22.7119 24.769C22.8178 24.6613 22.8825 24.514 22.8825 24.3666C22.8825 24.2187 22.8178 24.0714 22.7119 23.97C22.4943 23.7546 22.0878 23.7546 21.8766 23.9643C21.7702 24.0714 21.7061 24.2187 21.7061 24.3666C21.7061 24.514 21.7702 24.6613 21.8766 24.769C21.9878 24.871 22.1349 24.9333 22.2943 24.9333C22.4472 24.9333 22.6002 24.871 22.7119 24.769Z" fill="black"/>
<path d="M36.4118 2.26667H21.7059V0.566667C21.7059 0.2533 21.4429 0 21.1176 0H11.7059C11.3806 0 11.1176 0.2533 11.1176 0.566667V2.26667H7.58824C7.26294 2.26667 7 2.51997 7 2.83333V33.4333C7 33.7467 7.26294 34 7.58824 34H36.4118C36.7371 34 37 33.7467 37 33.4333V2.83333C37 2.51997 36.7371 2.26667 36.4118 2.26667ZM12.2941 2.83333V1.13333H20.5294V2.83333V15.3L16.7647 12.58C16.5559 12.4281 16.2682 12.4281 16.0594 12.58L12.2941 15.3V2.83333ZM35.8235 32.8667H8.17647V3.4H11.1176V16.4333C11.1176 16.6481 11.2435 16.8442 11.4429 16.9405C11.6424 17.0363 11.8812 17.0164 12.0588 16.8867L16.4118 13.7417L20.7647 16.8867C20.8129 16.9218 20.8665 16.9467 20.9218 16.966C20.9418 16.9728 20.9624 16.9751 20.9829 16.9796C21.0194 16.9875 21.0547 16.9949 21.0924 16.9966C21.1012 16.9966 21.1094 17.0006 21.1182 17.0006C21.1282 17.0006 21.1371 16.9943 21.1471 16.9938C21.2271 16.9904 21.3071 16.9762 21.3818 16.9405C21.58 16.8442 21.7059 16.6481 21.7059 16.4333V3.4H35.8235V32.8667Z" fill="black"/>
<path d="M4.67188 57.9297C3.38542 57.5599 2.44792 57.1068 1.85938 56.5703C1.27604 56.0286 0.984375 55.362 0.984375 54.5703C0.984375 53.6745 1.34115 52.9349 2.05469 52.3516C2.77344 51.763 3.70573 51.4688 4.85156 51.4688C5.63281 51.4688 6.32812 51.6198 6.9375 51.9219C7.55208 52.224 8.02604 52.6406 8.35938 53.1719C8.69792 53.7031 8.86719 54.2839 8.86719 54.9141H7.35938C7.35938 54.2266 7.14062 53.6875 6.70312 53.2969C6.26562 52.901 5.64844 52.7031 4.85156 52.7031C4.11198 52.7031 3.53385 52.8672 3.11719 53.1953C2.70573 53.5182 2.5 53.9688 2.5 54.5469C2.5 55.0104 2.69531 55.4036 3.08594 55.7266C3.48177 56.0443 4.15104 56.3359 5.09375 56.6016C6.04167 56.8672 6.78125 57.1615 7.3125 57.4844C7.84896 57.8021 8.24479 58.1745 8.5 58.6016C8.76042 59.0286 8.89062 59.5312 8.89062 60.1094C8.89062 61.0312 8.53125 61.7708 7.8125 62.3281C7.09375 62.8802 6.13281 63.1562 4.92969 63.1562C4.14844 63.1562 3.41927 63.0078 2.74219 62.7109C2.0651 62.4089 1.54167 61.9974 1.17188 61.4766C0.807292 60.9557 0.625 60.3646 0.625 59.7031H2.13281C2.13281 60.3906 2.38542 60.9349 2.89062 61.3359C3.40104 61.7318 4.08073 61.9297 4.92969 61.9297C5.72135 61.9297 6.32812 61.7682 6.75 61.4453C7.17188 61.1224 7.38281 60.6823 7.38281 60.125C7.38281 59.5677 7.1875 59.138 6.79688 58.8359C6.40625 58.5286 5.69792 58.2266 4.67188 57.9297ZM15.8125 63C15.7292 62.8333 15.6615 62.5365 15.6094 62.1094C14.9375 62.8073 14.1354 63.1562 13.2031 63.1562C12.3698 63.1562 11.6849 62.9219 11.1484 62.4531C10.6172 61.9792 10.3516 61.3802 10.3516 60.6562C10.3516 59.776 10.6849 59.0938 11.3516 58.6094C12.0234 58.1198 12.9661 57.875 14.1797 57.875H15.5859V57.2109C15.5859 56.7057 15.4349 56.3047 15.1328 56.0078C14.8307 55.7057 14.3854 55.5547 13.7969 55.5547C13.2812 55.5547 12.849 55.6849 12.5 55.9453C12.151 56.2057 11.9766 56.5208 11.9766 56.8906H10.5234C10.5234 56.4688 10.6719 56.0625 10.9688 55.6719C11.2708 55.276 11.6771 54.9635 12.1875 54.7344C12.7031 54.5052 13.2682 54.3906 13.8828 54.3906C14.8568 54.3906 15.6198 54.6354 16.1719 55.125C16.724 55.6094 17.0104 56.2786 17.0312 57.1328V61.0234C17.0312 61.7995 17.1302 62.4167 17.3281 62.875V63H15.8125ZM13.4141 61.8984C13.8672 61.8984 14.2969 61.7812 14.7031 61.5469C15.1094 61.3125 15.4036 61.0078 15.5859 60.6328V58.8984H14.4531C12.6823 58.8984 11.7969 59.4167 11.7969 60.4531C11.7969 60.9062 11.9479 61.2604 12.25 61.5156C12.5521 61.7708 12.9401 61.8984 13.4141 61.8984ZM21.9609 61.0391L24.0547 54.5469H25.5312L22.5 63H21.3984L18.3359 54.5469H19.8125L21.9609 61.0391ZM30.3203 63.1562C29.1745 63.1562 28.2422 62.7812 27.5234 62.0312C26.8047 61.276 26.4453 60.2682 26.4453 59.0078V58.7422C26.4453 57.9036 26.6042 57.1562 26.9219 56.5C27.2448 55.8385 27.6927 55.3229 28.2656 54.9531C28.8438 54.5781 29.4688 54.3906 30.1406 54.3906C31.2396 54.3906 32.0938 54.7526 32.7031 55.4766C33.3125 56.2005 33.6172 57.237 33.6172 58.5859V59.1875H27.8906C27.9115 60.0208 28.1536 60.6953 28.6172 61.2109C29.0859 61.7214 29.6797 61.9766 30.3984 61.9766C30.9089 61.9766 31.3411 61.8724 31.6953 61.6641C32.0495 61.4557 32.3594 61.1797 32.625 60.8359L33.5078 61.5234C32.7995 62.612 31.737 63.1562 30.3203 63.1562ZM30.1406 55.5781C29.5573 55.5781 29.0677 55.7917 28.6719 56.2188C28.276 56.6406 28.0312 57.2344 27.9375 58H32.1719V57.8906C32.1302 57.1562 31.9323 56.5885 31.5781 56.1875C31.224 55.7812 30.7448 55.5781 30.1406 55.5781ZM34.9453 58.7031C34.9453 57.4062 35.2526 56.3646 35.8672 55.5781C36.4818 54.7865 37.2865 54.3906 38.2812 54.3906C39.2708 54.3906 40.0547 54.7292 40.6328 55.4062V51H42.0781V63H40.75L40.6797 62.0938C40.1016 62.8021 39.2969 63.1562 38.2656 63.1562C37.2865 63.1562 36.487 62.7552 35.8672 61.9531C35.2526 61.151 34.9453 60.1042 34.9453 58.8125V58.7031ZM36.3906 58.8672C36.3906 59.8255 36.5885 60.5755 36.9844 61.1172C37.3802 61.6589 37.9271 61.9297 38.625 61.9297C39.5417 61.9297 40.2109 61.5182 40.6328 60.6953V56.8125C40.2005 56.0156 39.5365 55.6172 38.6406 55.6172C37.9323 55.6172 37.3802 55.8906 36.9844 56.4375C36.5885 56.9844 36.3906 57.7943 36.3906 58.8672Z" fill="black"/>
</svg>
