<svg width="54" height="65" viewBox="0 0 54 65" fill="none" xmlns="http://www.w3.org/2000/svg">
<path d="M8.09375 55.9766H3.32031V61H1.82031V49.625H8.86719V50.8594H3.32031V54.75H8.09375V55.9766ZM9.88281 56.6953C9.88281 55.8672 10.0443 55.1224 10.3672 54.4609C10.6953 53.7995 11.1484 53.2891 11.7266 52.9297C12.3099 52.5703 12.974 52.3906 13.7188 52.3906C14.8698 52.3906 15.7995 52.7891 16.5078 53.5859C17.2214 54.3828 17.5781 55.4427 17.5781 56.7656V56.8672C17.5781 57.6901 17.4193 58.4297 17.1016 59.0859C16.7891 59.737 16.3385 60.2448 15.75 60.6094C15.1667 60.974 14.4948 61.1562 13.7344 61.1562C12.5885 61.1562 11.6589 60.7578 10.9453 59.9609C10.237 59.1641 9.88281 58.1094 9.88281 56.7969V56.6953ZM11.3359 56.8672C11.3359 57.8047 11.5521 58.5573 11.9844 59.125C12.4219 59.6927 13.0052 59.9766 13.7344 59.9766C14.4688 59.9766 15.0521 59.6901 15.4844 59.1172C15.9167 58.5391 16.1328 57.7318 16.1328 56.6953C16.1328 55.7682 15.9115 55.0182 15.4688 54.4453C15.0312 53.8672 14.4479 53.5781 13.7188 53.5781C13.0052 53.5781 12.4297 53.862 11.9922 54.4297C11.5547 54.9974 11.3359 55.8099 11.3359 56.8672ZM23.4766 53.8438C23.2578 53.8073 23.0208 53.7891 22.7656 53.7891C21.8177 53.7891 21.1745 54.1927 20.8359 55V61H19.3906V52.5469H20.7969L20.8203 53.5234C21.2943 52.7682 21.9661 52.3906 22.8359 52.3906C23.1172 52.3906 23.3307 52.4271 23.4766 52.5V53.8438ZM31.5469 58.8828L33.5156 52.5469H35.0625L31.6641 62.3047C31.138 63.7109 30.3021 64.4141 29.1562 64.4141L28.8828 64.3906L28.3438 64.2891V63.1172L28.7344 63.1484C29.224 63.1484 29.6042 63.0495 29.875 62.8516C30.151 62.6536 30.3776 62.2917 30.5547 61.7656L30.875 60.9062L27.8594 52.5469H29.4375L31.5469 58.8828ZM35.8516 56.6953C35.8516 55.8672 36.013 55.1224 36.3359 54.4609C36.6641 53.7995 37.1172 53.2891 37.6953 52.9297C38.2786 52.5703 38.9427 52.3906 39.6875 52.3906C40.8385 52.3906 41.7682 52.7891 42.4766 53.5859C43.1901 54.3828 43.5469 55.4427 43.5469 56.7656V56.8672C43.5469 57.6901 43.388 58.4297 43.0703 59.0859C42.7578 59.737 42.3073 60.2448 41.7188 60.6094C41.1354 60.974 40.4635 61.1562 39.7031 61.1562C38.5573 61.1562 37.6276 60.7578 36.9141 59.9609C36.2057 59.1641 35.8516 58.1094 35.8516 56.7969V56.6953ZM37.3047 56.8672C37.3047 57.8047 37.5208 58.5573 37.9531 59.125C38.3906 59.6927 38.974 59.9766 39.7031 59.9766C40.4375 59.9766 41.0208 59.6901 41.4531 59.1172C41.8854 58.5391 42.1016 57.7318 42.1016 56.6953C42.1016 55.7682 41.8802 55.0182 41.4375 54.4453C41 53.8672 40.4167 53.5781 39.6875 53.5781C38.974 53.5781 38.3984 53.862 37.9609 54.4297C37.5234 54.9974 37.3047 55.8099 37.3047 56.8672ZM50.5781 60.1641C50.0156 60.8255 49.1901 61.1562 48.1016 61.1562C47.2005 61.1562 46.513 60.8958 46.0391 60.375C45.5703 59.849 45.3333 59.0729 45.3281 58.0469V52.5469H46.7734V58.0078C46.7734 59.2891 47.2943 59.9297 48.3359 59.9297C49.4401 59.9297 50.1745 59.5182 50.5391 58.6953V52.5469H51.9844V61H50.6094L50.5781 60.1641Z" fill="#4353FF"/>
<path d="M41.0377 21.149C39.7552 19.7533 37.8544 19.559 36.5714 20.9547L35.4993 22.1211L34.4277 20.9547C33.1452 19.559 31.2444 19.7538 29.9619 21.149C28.6794 22.5447 28.6794 24.8067 29.9619 26.2024L30.1403 26.3967L35.1424 31.8387C35.3399 32.0538 35.6598 32.0538 35.8572 31.8387L41.0377 26.2024C42.3208 24.8067 42.3208 22.5447 41.0377 21.149ZM40.3235 25.4251L39.7877 26.0075L35.5003 30.6728L30.6771 25.4251C29.7895 24.4584 29.7895 22.8924 30.6771 21.9263C31.5038 21.0273 32.7773 20.7129 33.714 21.7325L35.5003 23.6762L37.2866 21.7325C38.2683 20.6648 39.4968 21.0273 40.3235 21.9263C41.2112 22.893 41.2112 24.459 40.3235 25.4251Z" fill="#4353FF"/>
<path fill-rule="evenodd" clip-rule="evenodd" d="M13 2H41C41.552 2 42 1.553 42 1C42 0.447 41.552 -1.11759e-10 41 -1.11759e-10H13C12.448 -1.11759e-10 12 0.447 12 1C12 1.553 12.448 2 13 2ZM27 20H13C12.448 20 12 20.447 12 21C12 21.553 12.448 22 13 22H27C27.552 22 28 21.553 28 21C28 20.447 27.552 20 27 20ZM41 10H13C12.448 10 12 10.447 12 11C12 11.553 12.448 12 13 12H41C41.552 12 42 11.553 42 11C42 10.447 41.552 10 41 10ZM25 30H13C12.448 30 12 30.447 12 31C12 31.553 12.448 32 13 32H25C25.552 32 26 31.553 26 31C26 30.447 25.552 30 25 30Z" fill="#4353FF"/>
</svg>
