<svg width="54" height="63" viewBox="0 0 54 63" fill="none" xmlns="http://www.w3.org/2000/svg">
<path d="M8.25 53.7422H3.32031V57.7734H9.04688V59H1.82031V47.625H8.96875V48.8594H3.32031V52.5156H8.25V53.7422ZM13.5234 53.6328L15.3984 50.5469H17.0859L14.3203 54.7266L17.1719 59H15.5L13.5469 55.8359L11.5938 59H9.91406L12.7656 54.7266L10 50.5469H11.6719L13.5234 53.6328ZM25.7656 54.8672C25.7656 56.1536 25.4714 57.1901 24.8828 57.9766C24.2943 58.763 23.4974 59.1562 22.4922 59.1562C21.4661 59.1562 20.6589 58.8307 20.0703 58.1797V62.25H18.625V50.5469H19.9453L20.0156 51.4844C20.6042 50.7552 21.4219 50.3906 22.4688 50.3906C23.4844 50.3906 24.2865 50.7734 24.875 51.5391C25.4688 52.3047 25.7656 53.3698 25.7656 54.7344V54.8672ZM24.3203 54.7031C24.3203 53.75 24.1172 52.9974 23.7109 52.4453C23.3047 51.8932 22.7474 51.6172 22.0391 51.6172C21.1641 51.6172 20.5078 52.0052 20.0703 52.7812V56.8203C20.5026 57.5911 21.1641 57.9766 22.0547 57.9766C22.7474 57.9766 23.2969 57.7031 23.7031 57.1562C24.1146 56.6042 24.3203 55.7865 24.3203 54.7031ZM29.1797 59H27.7344V47H29.1797V59ZM31.1172 54.6953C31.1172 53.8672 31.2786 53.1224 31.6016 52.4609C31.9297 51.7995 32.3828 51.2891 32.9609 50.9297C33.5443 50.5703 34.2083 50.3906 34.9531 50.3906C36.1042 50.3906 37.0339 50.7891 37.7422 51.5859C38.4557 52.3828 38.8125 53.4427 38.8125 54.7656V54.8672C38.8125 55.6901 38.6536 56.4297 38.3359 57.0859C38.0234 57.737 37.5729 58.2448 36.9844 58.6094C36.401 58.974 35.7292 59.1562 34.9688 59.1562C33.8229 59.1562 32.8932 58.7578 32.1797 57.9609C31.4714 57.1641 31.1172 56.1094 31.1172 54.7969V54.6953ZM32.5703 54.8672C32.5703 55.8047 32.7865 56.5573 33.2188 57.125C33.6562 57.6927 34.2396 57.9766 34.9688 57.9766C35.7031 57.9766 36.2865 57.6901 36.7188 57.1172C37.151 56.5391 37.3672 55.7318 37.3672 54.6953C37.3672 53.7682 37.1458 53.0182 36.7031 52.4453C36.2656 51.8672 35.6823 51.5781 34.9531 51.5781C34.2396 51.5781 33.6641 51.862 33.2266 52.4297C32.7891 52.9974 32.5703 53.8099 32.5703 54.8672ZM44.7109 51.8438C44.4922 51.8073 44.2552 51.7891 44 51.7891C43.0521 51.7891 42.4089 52.1927 42.0703 53V59H40.625V50.5469H42.0312L42.0547 51.5234C42.5286 50.7682 43.2005 50.3906 44.0703 50.3906C44.3516 50.3906 44.5651 50.4271 44.7109 50.5V51.8438ZM49.3984 59.1562C48.2526 59.1562 47.3203 58.7812 46.6016 58.0312C45.8828 57.276 45.5234 56.2682 45.5234 55.0078V54.7422C45.5234 53.9036 45.6823 53.1562 46 52.5C46.3229 51.8385 46.7708 51.3229 47.3438 50.9531C47.9219 50.5781 48.5469 50.3906 49.2188 50.3906C50.3177 50.3906 51.1719 50.7526 51.7812 51.4766C52.3906 52.2005 52.6953 53.237 52.6953 54.5859V55.1875H46.9688C46.9896 56.0208 47.2318 56.6953 47.6953 57.2109C48.1641 57.7214 48.7578 57.9766 49.4766 57.9766C49.987 57.9766 50.4193 57.8724 50.7734 57.6641C51.1276 57.4557 51.4375 57.1797 51.7031 56.8359L52.5859 57.5234C51.8776 58.612 50.8151 59.1562 49.3984 59.1562ZM49.2188 51.5781C48.6354 51.5781 48.1458 51.7917 47.75 52.2188C47.3542 52.6406 47.1094 53.2344 47.0156 54H51.25V53.8906C51.2083 53.1562 51.0104 52.5885 50.6562 52.1875C50.3021 51.7812 49.8229 51.5781 49.2188 51.5781Z" fill="black"/>
<path d="M31.0102 18.7537L31.1766 18.6766L31.2537 18.5102L36.9537 6.21023L37.527 4.97299L36.2898 5.54634L23.9898 11.2463L23.8234 11.3234L23.7463 11.4898L18.0463 23.7898L17.473 25.027L18.7102 24.4537L31.0102 18.7537ZM26.35 15C26.35 14.3761 26.8761 13.85 27.5 13.85C28.1239 13.85 28.65 14.3761 28.65 15C28.65 15.6239 28.1239 16.15 27.5 16.15C26.8761 16.15 26.35 15.6239 26.35 15ZM13 15C13 7.02614 19.5261 0.5 27.5 0.5C35.4739 0.5 42 7.02614 42 15C42 22.9739 35.4739 29.5 27.5 29.5C19.5261 29.5 13 22.9739 13 15Z" stroke="black"/>
</svg>
