<svg width="50" height="63" viewBox="0 0 50 63" fill="none" xmlns="http://www.w3.org/2000/svg">
<path d="M4.67188 53.9297C3.38542 53.5599 2.44792 53.1068 1.85938 52.5703C1.27604 52.0286 0.984375 51.362 0.984375 50.5703C0.984375 49.6745 1.34115 48.9349 2.05469 48.3516C2.77344 47.763 3.70573 47.4688 4.85156 47.4688C5.63281 47.4688 6.32812 47.6198 6.9375 47.9219C7.55208 48.224 8.02604 48.6406 8.35938 49.1719C8.69792 49.7031 8.86719 50.2839 8.86719 50.9141H7.35938C7.35938 50.2266 7.14062 49.6875 6.70312 49.2969C6.26562 48.901 5.64844 48.7031 4.85156 48.7031C4.11198 48.7031 3.53385 48.8672 3.11719 49.1953C2.70573 49.5182 2.5 49.9688 2.5 50.5469C2.5 51.0104 2.69531 51.4036 3.08594 51.7266C3.48177 52.0443 4.15104 52.3359 5.09375 52.6016C6.04167 52.8672 6.78125 53.1615 7.3125 53.4844C7.84896 53.8021 8.24479 54.1745 8.5 54.6016C8.76042 55.0286 8.89062 55.5312 8.89062 56.1094C8.89062 57.0312 8.53125 57.7708 7.8125 58.3281C7.09375 58.8802 6.13281 59.1562 4.92969 59.1562C4.14844 59.1562 3.41927 59.0078 2.74219 58.7109C2.0651 58.4089 1.54167 57.9974 1.17188 57.4766C0.807292 56.9557 0.625 56.3646 0.625 55.7031H2.13281C2.13281 56.3906 2.38542 56.9349 2.89062 57.3359C3.40104 57.7318 4.08073 57.9297 4.92969 57.9297C5.72135 57.9297 6.32812 57.7682 6.75 57.4453C7.17188 57.1224 7.38281 56.6823 7.38281 56.125C7.38281 55.5677 7.1875 55.138 6.79688 54.8359C6.40625 54.5286 5.69792 54.2266 4.67188 53.9297ZM14.1016 59.1562C12.9557 59.1562 12.0234 58.7812 11.3047 58.0312C10.5859 57.276 10.2266 56.2682 10.2266 55.0078V54.7422C10.2266 53.9036 10.3854 53.1562 10.7031 52.5C11.026 51.8385 11.474 51.3229 12.0469 50.9531C12.625 50.5781 13.25 50.3906 13.9219 50.3906C15.0208 50.3906 15.875 50.7526 16.4844 51.4766C17.0938 52.2005 17.3984 53.237 17.3984 54.5859V55.1875H11.6719C11.6927 56.0208 11.9349 56.6953 12.3984 57.2109C12.8672 57.7214 13.4609 57.9766 14.1797 57.9766C14.6901 57.9766 15.1224 57.8724 15.4766 57.6641C15.8307 57.4557 16.1406 57.1797 16.4062 56.8359L17.2891 57.5234C16.5807 58.612 15.5182 59.1562 14.1016 59.1562ZM13.9219 51.5781C13.3385 51.5781 12.849 51.7917 12.4531 52.2188C12.0573 52.6406 11.8125 53.2344 11.7188 54H15.9531V53.8906C15.9115 53.1562 15.7135 52.5885 15.3594 52.1875C15.0052 51.7812 14.526 51.5781 13.9219 51.5781ZM24.2969 59C24.2135 58.8333 24.1458 58.5365 24.0938 58.1094C23.4219 58.8073 22.6198 59.1562 21.6875 59.1562C20.8542 59.1562 20.1693 58.9219 19.6328 58.4531C19.1016 57.9792 18.8359 57.3802 18.8359 56.6562C18.8359 55.776 19.1693 55.0938 19.8359 54.6094C20.5078 54.1198 21.4505 53.875 22.6641 53.875H24.0703V53.2109C24.0703 52.7057 23.9193 52.3047 23.6172 52.0078C23.3151 51.7057 22.8698 51.5547 22.2812 51.5547C21.7656 51.5547 21.3333 51.6849 20.9844 51.9453C20.6354 52.2057 20.4609 52.5208 20.4609 52.8906H19.0078C19.0078 52.4688 19.1562 52.0625 19.4531 51.6719C19.7552 51.276 20.1615 50.9635 20.6719 50.7344C21.1875 50.5052 21.7526 50.3906 22.3672 50.3906C23.3411 50.3906 24.1042 50.6354 24.6562 51.125C25.2083 51.6094 25.4948 52.2786 25.5156 53.1328V57.0234C25.5156 57.7995 25.6146 58.4167 25.8125 58.875V59H24.2969ZM21.8984 57.8984C22.3516 57.8984 22.7812 57.7812 23.1875 57.5469C23.5938 57.3125 23.888 57.0078 24.0703 56.6328V54.8984H22.9375C21.1667 54.8984 20.2812 55.4167 20.2812 56.4531C20.2812 56.9062 20.4323 57.2604 20.7344 57.5156C21.0365 57.7708 21.4245 57.8984 21.8984 57.8984ZM31.8672 51.8438C31.6484 51.8073 31.4115 51.7891 31.1562 51.7891C30.2083 51.7891 29.5651 52.1927 29.2266 53V59H27.7812V50.5469H29.1875L29.2109 51.5234C29.6849 50.7682 30.3568 50.3906 31.2266 50.3906C31.5078 50.3906 31.7214 50.4271 31.8672 50.5V51.8438ZM36.4375 57.9766C36.9531 57.9766 37.4036 57.8203 37.7891 57.5078C38.1745 57.1953 38.388 56.8047 38.4297 56.3359H39.7969C39.7708 56.8203 39.6042 57.2812 39.2969 57.7188C38.9896 58.1562 38.5781 58.5052 38.0625 58.7656C37.5521 59.026 37.0104 59.1562 36.4375 59.1562C35.2865 59.1562 34.3698 58.7734 33.6875 58.0078C33.0104 57.237 32.6719 56.1849 32.6719 54.8516V54.6094C32.6719 53.7865 32.8229 53.0547 33.125 52.4141C33.4271 51.7734 33.8594 51.276 34.4219 50.9219C34.9896 50.5677 35.6589 50.3906 36.4297 50.3906C37.3776 50.3906 38.1641 50.6745 38.7891 51.2422C39.4193 51.8099 39.7552 52.5469 39.7969 53.4531H38.4297C38.388 52.9062 38.1797 52.4583 37.8047 52.1094C37.4349 51.7552 36.9766 51.5781 36.4297 51.5781C35.6953 51.5781 35.125 51.8438 34.7188 52.375C34.3177 52.901 34.1172 53.6641 34.1172 54.6641V54.9375C34.1172 55.9115 34.3177 56.6615 34.7188 57.1875C35.1198 57.7135 35.6927 57.9766 36.4375 57.9766ZM42.8672 51.5703C43.5078 50.7839 44.3411 50.3906 45.3672 50.3906C47.1536 50.3906 48.0547 51.3984 48.0703 53.4141V59H46.625V53.4062C46.6198 52.7969 46.4792 52.3464 46.2031 52.0547C45.9323 51.763 45.5078 51.6172 44.9297 51.6172C44.4609 51.6172 44.0495 51.7422 43.6953 51.9922C43.3411 52.2422 43.0651 52.5703 42.8672 52.9766V59H41.4219V47H42.8672V51.5703Z" fill="black"/>
<path d="M39.7405 28.4701L32.4484 21.1796C34.4045 18.9313 35.5888 15.9978 35.5888 12.7916C35.5888 5.73392 29.847 0 22.7944 0C15.7352 0 10 5.74058 10 12.7916C10 19.8426 15.7418 25.5831 22.7944 25.5831C26.0013 25.5831 28.9355 24.3991 31.1843 22.4435L38.4764 29.7339C38.6494 29.9069 38.8822 30 39.1084 30C39.3347 30 39.5675 29.9135 39.7405 29.7339C40.0865 29.388 40.0865 28.816 39.7405 28.4701ZM11.7898 12.7916C11.7898 6.72506 16.7265 1.79601 22.7878 1.79601C28.8556 1.79601 33.7858 6.73171 33.7858 12.7916C33.7858 18.8514 28.8556 23.7938 22.7878 23.7938C16.7265 23.7938 11.7898 18.8581 11.7898 12.7916Z" fill="black"/>
</svg>
