<svg width="66" height="63" viewBox="0 0 66 63" fill="none" xmlns="http://www.w3.org/2000/svg">
<path d="M7.59375 53.9766H2.82031V59H1.32031V47.625H8.36719V48.8594H2.82031V52.75H7.59375V53.9766ZM14.8906 59C14.8073 58.8333 14.7396 58.5365 14.6875 58.1094C14.0156 58.8073 13.2135 59.1562 12.2812 59.1562C11.4479 59.1562 10.763 58.9219 10.2266 58.4531C9.69531 57.9792 9.42969 57.3802 9.42969 56.6562C9.42969 55.776 9.76302 55.0938 10.4297 54.6094C11.1016 54.1198 12.0443 53.875 13.2578 53.875H14.6641V53.2109C14.6641 52.7057 14.513 52.3047 14.2109 52.0078C13.9089 51.7057 13.4635 51.5547 12.875 51.5547C12.3594 51.5547 11.9271 51.6849 11.5781 51.9453C11.2292 52.2057 11.0547 52.5208 11.0547 52.8906H9.60156C9.60156 52.4688 9.75 52.0625 10.0469 51.6719C10.349 51.276 10.7552 50.9635 11.2656 50.7344C11.7812 50.5052 12.3464 50.3906 12.9609 50.3906C13.9349 50.3906 14.6979 50.6354 15.25 51.125C15.8021 51.6094 16.0885 52.2786 16.1094 53.1328V57.0234C16.1094 57.7995 16.2083 58.4167 16.4062 58.875V59H14.8906ZM12.4922 57.8984C12.9453 57.8984 13.375 57.7812 13.7812 57.5469C14.1875 57.3125 14.4818 57.0078 14.6641 56.6328V54.8984H13.5312C11.7604 54.8984 10.875 55.4167 10.875 56.4531C10.875 56.9062 11.026 57.2604 11.3281 57.5156C11.6302 57.7708 12.0182 57.8984 12.4922 57.8984ZM21.0391 57.0391L23.1328 50.5469H24.6094L21.5781 59H20.4766L17.4141 50.5469H18.8906L21.0391 57.0391ZM25.4922 54.6953C25.4922 53.8672 25.6536 53.1224 25.9766 52.4609C26.3047 51.7995 26.7578 51.2891 27.3359 50.9297C27.9193 50.5703 28.5833 50.3906 29.3281 50.3906C30.4792 50.3906 31.4089 50.7891 32.1172 51.5859C32.8307 52.3828 33.1875 53.4427 33.1875 54.7656V54.8672C33.1875 55.6901 33.0286 56.4297 32.7109 57.0859C32.3984 57.737 31.9479 58.2448 31.3594 58.6094C30.776 58.974 30.1042 59.1562 29.3438 59.1562C28.1979 59.1562 27.2682 58.7578 26.5547 57.9609C25.8464 57.1641 25.4922 56.1094 25.4922 54.7969V54.6953ZM26.9453 54.8672C26.9453 55.8047 27.1615 56.5573 27.5938 57.125C28.0312 57.6927 28.6146 57.9766 29.3438 57.9766C30.0781 57.9766 30.6615 57.6901 31.0938 57.1172C31.526 56.5391 31.7422 55.7318 31.7422 54.6953C31.7422 53.7682 31.5208 53.0182 31.0781 52.4453C30.6406 51.8672 30.0573 51.5781 29.3281 51.5781C28.6146 51.5781 28.0391 51.862 27.6016 52.4297C27.1641 52.9974 26.9453 53.8099 26.9453 54.8672ZM39.0859 51.8438C38.8672 51.8073 38.6302 51.7891 38.375 51.7891C37.4271 51.7891 36.7839 52.1927 36.4453 53V59H35V50.5469H36.4062L36.4297 51.5234C36.9036 50.7682 37.5755 50.3906 38.4453 50.3906C38.7266 50.3906 38.9401 50.4271 39.0859 50.5V51.8438ZM41.9922 59H40.5469V50.5469H41.9922V59ZM40.4297 48.3047C40.4297 48.0703 40.5 47.8724 40.6406 47.7109C40.7865 47.5495 41 47.4688 41.2812 47.4688C41.5625 47.4688 41.776 47.5495 41.9219 47.7109C42.0677 47.8724 42.1406 48.0703 42.1406 48.3047C42.1406 48.5391 42.0677 48.7344 41.9219 48.8906C41.776 49.0469 41.5625 49.125 41.2812 49.125C41 49.125 40.7865 49.0469 40.6406 48.8906C40.5 48.7344 40.4297 48.5391 40.4297 48.3047ZM46.2734 48.5V50.5469H47.8516V51.6641H46.2734V56.9062C46.2734 57.2448 46.3438 57.5 46.4844 57.6719C46.625 57.8385 46.8646 57.9219 47.2031 57.9219C47.3698 57.9219 47.599 57.8906 47.8906 57.8281V59C47.5104 59.1042 47.1406 59.1562 46.7812 59.1562C46.1354 59.1562 45.6484 58.9609 45.3203 58.5703C44.9922 58.1797 44.8281 57.625 44.8281 56.9062V51.6641H43.2891V50.5469H44.8281V48.5H46.2734ZM53.0547 59.1562C51.9089 59.1562 50.9766 58.7812 50.2578 58.0312C49.5391 57.276 49.1797 56.2682 49.1797 55.0078V54.7422C49.1797 53.9036 49.3385 53.1562 49.6562 52.5C49.9792 51.8385 50.4271 51.3229 51 50.9531C51.5781 50.5781 52.2031 50.3906 52.875 50.3906C53.974 50.3906 54.8281 50.7526 55.4375 51.4766C56.0469 52.2005 56.3516 53.237 56.3516 54.5859V55.1875H50.625C50.6458 56.0208 50.888 56.6953 51.3516 57.2109C51.8203 57.7214 52.4141 57.9766 53.1328 57.9766C53.6432 57.9766 54.0755 57.8724 54.4297 57.6641C54.7839 57.4557 55.0938 57.1797 55.3594 56.8359L56.2422 57.5234C55.5339 58.612 54.4714 59.1562 53.0547 59.1562ZM52.875 51.5781C52.2917 51.5781 51.8021 51.7917 51.4062 52.2188C51.0104 52.6406 50.7656 53.2344 50.6719 54H54.9062V53.8906C54.8646 53.1562 54.6667 52.5885 54.3125 52.1875C53.9583 51.7812 53.4792 51.5781 52.875 51.5781ZM62.9531 56.7578C62.9531 56.3672 62.8047 56.0651 62.5078 55.8516C62.2161 55.6328 61.7031 55.4453 60.9688 55.2891C60.2396 55.1328 59.6589 54.9453 59.2266 54.7266C58.7995 54.5078 58.4818 54.2474 58.2734 53.9453C58.0703 53.6432 57.9688 53.2839 57.9688 52.8672C57.9688 52.1745 58.2604 51.5885 58.8438 51.1094C59.4323 50.6302 60.1823 50.3906 61.0938 50.3906C62.0521 50.3906 62.8281 50.638 63.4219 51.1328C64.0208 51.6276 64.3203 52.2604 64.3203 53.0312H62.8672C62.8672 52.6354 62.6979 52.2943 62.3594 52.0078C62.026 51.7214 61.6042 51.5781 61.0938 51.5781C60.5677 51.5781 60.1562 51.6927 59.8594 51.9219C59.5625 52.151 59.4141 52.4505 59.4141 52.8203C59.4141 53.1693 59.5521 53.4323 59.8281 53.6094C60.1042 53.7865 60.6016 53.9557 61.3203 54.1172C62.0443 54.2786 62.6302 54.4714 63.0781 54.6953C63.526 54.9193 63.8568 55.1901 64.0703 55.5078C64.2891 55.8203 64.3984 56.2031 64.3984 56.6562C64.3984 57.4115 64.0964 58.0182 63.4922 58.4766C62.888 58.9297 62.1042 59.1562 61.1406 59.1562C60.4635 59.1562 59.8646 59.0365 59.3438 58.7969C58.8229 58.5573 58.4141 58.224 58.1172 57.7969C57.8255 57.3646 57.6797 56.8984 57.6797 56.3984H59.125C59.151 56.8828 59.3438 57.2682 59.7031 57.5547C60.0677 57.8359 60.5469 57.9766 61.1406 57.9766C61.6875 57.9766 62.125 57.8672 62.4531 57.6484C62.7865 57.4245 62.9531 57.1276 62.9531 56.7578Z" fill="black"/>
<path d="M27.148 1.97206C27.148 0.887428 26.2604 0 25.1756 0H20.4725C19.3876 0 18.5 0.887428 18.5 1.97206V6.66804C18.5 7.75267 19.3876 8.6401 20.4725 8.6401H25.1694C26.2543 8.6401 27.1419 7.75267 27.1419 6.66804V1.97206H27.148ZM25.6379 6.6742C25.6379 6.92687 25.4283 7.1364 25.1756 7.1364H20.4725C20.2197 7.1364 20.0102 6.92687 20.0102 6.6742V1.97206C20.0102 1.71939 20.2197 1.50986 20.4725 1.50986H25.1694C25.4221 1.50986 25.6317 1.71939 25.6317 1.97206V6.6742H25.6379Z" fill="black"/>
<path d="M27.148 12.652C27.148 11.5674 26.2604 10.6799 25.1756 10.6799H20.4725C19.3876 10.6799 18.5 11.5674 18.5 12.652V17.348C18.5 18.4326 19.3876 19.32 20.4725 19.32H25.1694C26.2543 19.32 27.1419 18.4326 27.1419 17.348V12.652H27.148ZM25.6379 17.348C25.6379 17.6006 25.4283 17.8102 25.1756 17.8102H20.4725C20.2197 17.8102 20.0102 17.6006 20.0102 17.348V12.652C20.0102 12.3993 20.2197 12.1898 20.4725 12.1898H25.1694C25.4221 12.1898 25.6317 12.3993 25.6317 12.652V17.348H25.6379Z" fill="black"/>
<path d="M25.1756 21.3538H20.4725C19.3876 21.3538 18.5 22.2412 18.5 23.3258V28.0218C18.5 29.1064 19.3876 29.9939 20.4725 29.9939H25.1694C26.2543 29.9939 27.1419 29.1064 27.1419 28.0218V23.3258C27.148 22.2412 26.2604 21.3538 25.1756 21.3538ZM25.6379 28.028C25.6379 28.2806 25.4283 28.4902 25.1756 28.4902H20.4725C20.2197 28.4902 20.0102 28.2806 20.0102 28.028V23.332C20.0102 23.0793 20.2197 22.8698 20.4725 22.8698H25.1694C25.4221 22.8698 25.6317 23.0793 25.6317 23.332V28.028H25.6379Z" fill="black"/>
<path d="M29.1821 17.348C29.1821 18.4326 30.0697 19.32 31.1546 19.32H35.8515C36.9364 19.32 37.824 18.4326 37.824 17.348V12.652C37.824 11.5674 36.9364 10.6799 35.8515 10.6799H31.1546C30.0697 10.6799 29.1821 11.5674 29.1821 12.652V17.348ZM30.6923 12.652C30.6923 12.3993 30.9019 12.1898 31.1546 12.1898H35.8515C36.1043 12.1898 36.3138 12.3993 36.3138 12.652V17.348C36.3138 17.6006 36.1043 17.8102 35.8515 17.8102H31.1546C30.9019 17.8102 30.6923 17.6006 30.6923 17.348V12.652Z" fill="black"/>
<path d="M29.1821 28.0279C29.1821 29.1125 30.0697 30 31.1546 30H35.8515C36.9364 30 37.824 29.1125 37.824 28.0279V23.3319C37.824 22.2473 36.9364 21.3599 35.8515 21.3599H31.1546C30.0697 21.3599 29.1821 22.2473 29.1821 23.3319V28.0279ZM30.6923 23.3258C30.6923 23.0731 30.9019 22.8636 31.1546 22.8636H35.8515C36.1043 22.8636 36.3138 23.0731 36.3138 23.3258V28.0217C36.3138 28.2744 36.1043 28.4839 35.8515 28.4839H31.1546C30.9019 28.4839 30.6923 28.2744 30.6923 28.0217V23.3258Z" fill="black"/>
<path d="M39.8579 17.348C39.8579 18.4326 40.7455 19.32 41.8304 19.32H46.5273C47.6122 19.32 48.4998 18.4326 48.4998 17.348V12.652C48.4998 11.5674 47.6122 10.6799 46.5273 10.6799H41.8304C40.7455 10.6799 39.8579 11.5674 39.8579 12.652V17.348ZM41.3681 12.652C41.3681 12.3993 41.5777 12.1898 41.8304 12.1898H46.5273C46.78 12.1898 46.9896 12.3993 46.9896 12.652V17.348C46.9896 17.6006 46.78 17.8102 46.5273 17.8102H41.8304C41.5777 17.8102 41.3681 17.6006 41.3681 17.348V12.652Z" fill="black"/>
<path d="M39.8579 28.0279C39.8579 29.1125 40.7455 30 41.8304 30H46.5273C47.6122 30 48.4998 29.1125 48.4998 28.0279V23.3319C48.4998 22.2473 47.6122 21.3599 46.5273 21.3599H41.8304C40.7455 21.3599 39.8579 22.2473 39.8579 23.3319V28.0279ZM41.3681 23.3258C41.3681 23.0731 41.5777 22.8636 41.8304 22.8636H46.5273C46.78 22.8636 46.9896 23.0731 46.9896 23.3258V28.0217C46.9896 28.2744 46.78 28.4839 46.5273 28.4839H41.8304C41.5777 28.4839 41.3681 28.2744 41.3681 28.0217V23.3258Z" fill="black"/>
<path d="M29.1821 1.97206V6.66804C29.1821 7.75267 30.0697 8.6401 31.1546 8.6401H35.8515C36.9364 8.6401 37.824 7.75267 37.824 6.66804V1.97206C37.824 0.887428 36.9364 0 35.8515 0H31.1546C30.0636 0 29.1821 0.887428 29.1821 1.97206ZM30.6923 1.97206C30.6923 1.71939 30.9019 1.50986 31.1546 1.50986H35.8515C36.1043 1.50986 36.3138 1.71939 36.3138 1.97206V6.66804C36.3138 6.92071 36.1043 7.13024 35.8515 7.13024H31.1546C30.9019 7.13024 30.6923 6.92071 30.6923 6.66804V1.97206Z" fill="black"/>
<path d="M41.8304 8.64626H46.5273C47.6122 8.64626 48.4998 7.75883 48.4998 6.6742V1.97206C48.4998 0.887428 47.6122 0 46.5273 0H41.8304C40.7455 0 39.8579 0.887428 39.8579 1.97206V6.66804C39.8579 7.75883 40.7455 8.64626 41.8304 8.64626ZM41.3681 1.97206C41.3681 1.71939 41.5777 1.50986 41.8304 1.50986H46.5273C46.78 1.50986 46.9896 1.71939 46.9896 1.97206V6.66804C46.9896 6.92071 46.78 7.13024 46.5273 7.13024H41.8304C41.5777 7.13024 41.3681 6.92071 41.3681 6.66804V1.97206Z" fill="black"/>
</svg>
